<svg xmlns="http://www.w3.org/2000/svg" xmlns:xlink="http://www.w3.org/1999/xlink" fill="none" version="1.1" width="72" height="72" viewBox="0 0 72 72"><defs><filter id="master_svg1_0_8845" filterUnits="objectBoundingBox" color-interpolation-filters="sRGB" x="-30.000001907348633" y="-27.000001907348633" width="84.14210319519043" height="84.14290428161621"><feFlood flood-opacity="0" result="BackgroundImageFix"/><feColorMatrix in="SourceAlpha" type="matrix" values="0 0 0 0 0 0 0 0 0 0 0 0 0 0 0 0 0 0 127 0"/><feOffset dy="4" dx="1"/><feGaussianBlur stdDeviation="7.750000476837158"/><feColorMatrix type="matrix" values="0 0 0 0 0.3657986521720886 0 0 0 0 0.6732187271118164 0 0 0 0 0.8958333134651184 0 0 0 0.44999998807907104 0"/><feBlend mode="normal" in2="BackgroundImageFix" result="effect1_dropShadow"/><feBlend mode="normal" in="SourceGraphic" in2="effect1_dropShadow" result="shape"/></filter><filter id="master_svg2_0_8846" filterUnits="objectBoundingBox" color-interpolation-filters="sRGB" x="-15" y="-12" width="47.29942512512207" height="47.2987003326416"><feFlood flood-opacity="0" result="BackgroundImageFix"/><feColorMatrix in="SourceAlpha" type="matrix" values="0 0 0 0 0 0 0 0 0 0 0 0 0 0 0 0 0 0 127 0"/><feOffset dy="4" dx="1"/><feGaussianBlur stdDeviation="4"/><feColorMatrix type="matrix" values="0 0 0 0 0.3657986521720886 0 0 0 0 0.6732187271118164 0 0 0 0 0.8958333134651184 0 0 0 0.6800000071525574 0"/><feBlend mode="normal" in2="BackgroundImageFix" result="effect1_dropShadow"/><feBlend mode="normal" in="SourceGraphic" in2="effect1_dropShadow" result="shape"/></filter></defs><clipPath id="master_svg0_0_8844"><rect x="13" y="13" width="46.45161056518555" height="46.45161056518555" rx="0"/></clipPath><g style="mix-blend-mode:passthrough"><g><g style="mix-blend-mode:passthrough"><ellipse cx="36" cy="36" rx="35.65048545598984" ry="35.65048545598984" fill-opacity="0" stroke-opacity="1" stroke="#125DB5" stroke-width="0.6990290880203247" fill="none" stroke-dasharray=""/></g><g style="mix-blend-mode:passthrough"><path d="M61.9943848815918,47.6206955871582C61.7618848815918,48.121595587158204,61.979484881591794,48.716195587158204,62.480384881591796,48.9487955871582C62.981384881591794,49.1812955871582,63.57598488159179,48.963695587158206,63.808484881591795,48.462795587158205C63.808484881591795,48.462795587158205,61.9943848815918,47.6206955871582,61.9943848815918,47.6206955871582C61.9943848815918,47.6206955871582,61.9943848815918,47.6206955871582,61.9943848815918,47.6206955871582ZM50.177084881591796,62.672595587158206C50.667884881591796,62.4192955871582,50.8603848815918,61.8160955871582,50.607084881591796,61.3252955871582C50.353884881591796,60.8344955871582,49.750684881591795,60.641995587158206,49.259884881591795,60.8952955871582C49.259884881591795,60.8952955871582,50.177084881591796,62.672595587158206,50.177084881591796,62.672595587158206C50.177084881591796,62.672595587158206,50.177084881591796,62.672595587158206,50.177084881591796,62.672595587158206ZM36.2903848815918,64.0323955871582C20.6482848815918,64.0323955871582,7.967784881591797,51.351895587158204,7.967784881591797,35.709795587158204C7.967784881591797,35.709795587158204,5.967784881591797,35.709795587158204,5.967784881591797,35.709795587158204C5.967784881591797,52.4564955871582,19.543684881591798,66.0323955871582,36.2903848815918,66.0323955871582C36.2903848815918,66.0323955871582,36.2903848815918,64.0323955871582,36.2903848815918,64.0323955871582C36.2903848815918,64.0323955871582,36.2903848815918,64.0323955871582,36.2903848815918,64.0323955871582ZM7.967784881591797,35.709795587158204C7.967784881591797,20.067695587158205,20.6482848815918,7.387195587158203,36.2903848815918,7.387195587158203C36.2903848815918,7.387195587158203,36.2903848815918,5.387195587158203,36.2903848815918,5.387195587158203C19.543684881591798,5.387195587158203,5.967784881591797,18.963095587158204,5.967784881591797,35.709795587158204C5.967784881591797,35.709795587158204,7.967784881591797,35.709795587158204,7.967784881591797,35.709795587158204C7.967784881591797,35.709795587158204,7.967784881591797,35.709795587158204,7.967784881591797,35.709795587158204ZM36.2903848815918,7.387195587158203C51.9324848815918,7.387195587158203,64.6129848815918,20.067695587158205,64.6129848815918,35.709795587158204C64.6129848815918,35.709795587158204,66.6129848815918,35.709795587158204,66.6129848815918,35.709795587158204C66.6129848815918,18.963095587158204,53.037084881591795,5.387195587158203,36.2903848815918,5.387195587158203C36.2903848815918,5.387195587158203,36.2903848815918,7.387195587158203,36.2903848815918,7.387195587158203C36.2903848815918,7.387195587158203,36.2903848815918,7.387195587158203,36.2903848815918,7.387195587158203ZM64.6129848815918,35.709795587158204C64.6129848815918,39.9663955871582,63.6745848815918,44.001095587158204,61.9943848815918,47.6206955871582C61.9943848815918,47.6206955871582,63.808484881591795,48.462795587158205,63.808484881591795,48.462795587158205C65.6086848815918,44.584795587158204,66.6129848815918,40.2631955871582,66.6129848815918,35.709795587158204C66.6129848815918,35.709795587158204,64.6129848815918,35.709795587158204,64.6129848815918,35.709795587158204C64.6129848815918,35.709795587158204,64.6129848815918,35.709795587158204,64.6129848815918,35.709795587158204ZM49.259884881591795,60.8952955871582C45.375084881591796,62.899895587158206,40.966484881591796,64.0323955871582,36.2903848815918,64.0323955871582C36.2903848815918,64.0323955871582,36.2903848815918,66.0323955871582,36.2903848815918,66.0323955871582C41.2929848815918,66.0323955871582,46.0153848815918,64.82009558715819,50.177084881591796,62.672595587158206C50.177084881591796,62.672595587158206,49.259884881591795,60.8952955871582,49.259884881591795,60.8952955871582C49.259884881591795,60.8952955871582,49.259884881591795,60.8952955871582,49.259884881591795,60.8952955871582Z" fill="#0AA7FF" fill-opacity="1"/></g><g clip-path="url(#master_svg0_0_8844)" style="mix-blend-mode:passthrough"><g><g filter="url(#master_svg1_0_8845)" style="mix-blend-mode:passthrough"><path d="M40.15750623626709,35.599445765075686C40.15750623626709,35.599445765075686,37.49780623626709,35.599445765075686,37.49780623626709,35.599445765075686C37.30710623626709,34.85970576507568,37.01940623626709,34.166125765075684,36.62200623626709,33.48734576507568C36.62200623626709,33.48734576507568,38.50230623626709,31.608345765075683,38.50230623626709,31.608345765075683C38.54170623626709,31.56896576507568,38.564106236267094,31.515295765075685,38.564106236267094,31.459395765075683C38.564106236267094,31.403415765075685,38.54170623626709,31.35021576507568,38.50230623626709,31.31079576507568C38.50230623626709,31.31079576507568,35.753506236267086,28.563265765075684,35.753506236267086,28.563265765075684C35.67160623626709,28.480945765075685,35.53870623626709,28.481385765075682,35.45680623626709,28.562825765075683C35.45680623626709,28.562825765075683,33.56890623626709,30.442215765075684,33.56890623626709,30.442215765075684C32.90130623626709,30.050215765075684,32.18680623626709,29.754455765075683,31.44130623626709,29.561175765075685C31.44130623626709,29.561175765075685,31.44130623626709,26.881671765075684,31.44130623626709,26.881671765075684C31.44130623626709,26.765318465075683,31.34700623626709,26.671385765075684,31.23060623626709,26.671385765075684C31.23060623626709,26.671385765075684,27.31609623626709,26.671385765075684,27.31609623626709,26.671385765075684C27.19950623626709,26.671385765075684,27.10578623626709,26.765318465075683,27.10578623626709,26.881671765075684C27.10578623626709,26.881671765075684,27.10578623626709,29.559815765075683,27.10578623626709,29.559815765075683C26.37255623626709,29.758485765075683,25.65214623626709,30.059225765075684,25.00576623626709,30.436025765075684C25.00576623626709,30.436025765075684,23.14533623626709,28.564215765075684,23.14533623626709,28.564215765075684C23.10594623626709,28.524395765075685,23.052246236267088,28.502445765075684,22.99630623626709,28.502445765075684C22.99630623626709,28.502445765075684,22.99585623626709,28.502445765075684,22.99585623626709,28.502445765075684C22.93995623626709,28.502445765075684,22.88643623626709,28.524395765075685,22.84686623626709,28.563775765075683C22.84686623626709,28.563775765075683,20.10449623626709,31.312155765075683,20.10449623626709,31.312155765075683C20.06511623626709,31.351535765075685,20.04269623626709,31.405685765075685,20.04269623626709,31.461595765075685C20.04269623626709,31.517535765075685,20.06508623626709,31.570795765075683,20.10490623626709,31.610615765075686C20.10490623626709,31.610615765075686,21.97806623626709,33.47747576507568,21.97806623626709,33.47747576507568C21.58181623626709,34.15317576507569,21.29316623626709,34.85041576507568,21.09962623626709,35.599445765075686C21.09962623626709,35.599445765075686,18.43612923626709,35.599445765075686,18.43612923626709,35.599445765075686C18.31977553626709,35.599445765075686,18.22580623626709,35.693395765075685,18.22580623626709,35.809755765075685C18.22580623626709,35.809755765075685,18.22580623626709,39.723885765075686,18.22580623626709,39.723885765075686C18.22580623626709,39.840085765075685,18.31973903626709,39.93458576507568,18.43612923626709,39.93458576507568C18.43612923626709,39.93458576507568,21.10354623626709,39.93458576507568,21.10354623626709,39.93458576507568C21.30646623626709,40.679585765075686,21.60804623626709,41.403685765075686,21.98374623626709,42.04668576507568C21.98374623626709,42.04668576507568,20.11058623626709,43.91488576507568,20.11058623626709,43.91488576507568C20.07075623626709,43.95508576507568,20.04859623626709,44.00798576507569,20.04859623626709,44.06388576507568C20.04859623626709,44.11978576507568,20.07071623626709,44.173585765075686,20.11058623626709,44.21288576507568C20.11058623626709,44.21288576507568,22.85899623626709,46.95858576507568,22.85899623626709,46.95858576507568C22.898816236267088,46.998485765075685,22.96615623626709,47.02338576507569,23.00864623626709,47.02038576507569C23.06455623626709,47.02038576507569,23.11825623626709,46.99798576507568,23.15761623626709,46.95818576507568C23.15761623626709,46.95818576507568,25.01018623626709,45.08188576507568,25.01018623626709,45.08188576507568C25.65498623626709,45.45678576507568,26.37295623626709,45.75628576507569,27.10573623626709,45.95448576507569C27.10573623626709,45.95448576507569,27.10573623626709,48.60408576507568,27.10573623626709,48.60408576507568C27.10573623626709,48.72028576507569,27.19944623626709,48.81428576507568,27.31604623626709,48.81428576507568C27.31604623626709,48.81428576507568,31.23060623626709,48.81428576507568,31.23060623626709,48.81428576507568C31.34700623626709,48.81428576507568,31.44130623626709,48.72028576507569,31.44130623626709,48.60408576507568C31.44130623626709,48.60408576507568,31.44130623626709,45.952685765075685,31.44130623626709,45.952685765075685C32.18340623626709,45.76028576507568,32.89720623626709,45.46538576507568,33.56530623626709,45.073785765075684C33.56530623626709,45.073785765075684,35.45150623626709,46.95638576507568,35.45150623626709,46.95638576507568C35.53420623626709,47.038285765075685,35.66710623626709,47.038285765075685,35.74940623626709,46.95638576507568C35.74940623626709,46.95638576507568,38.50010623626709,44.207585765075684,38.50010623626709,44.207585765075684C38.53940623626709,44.168185765075684,38.56140623626709,44.114885765075684,38.56140623626709,44.05898576507568C38.56140623626709,44.00268576507568,38.53940623626709,43.948785765075684,38.49960623626709,43.90948576507569C38.49960623626709,43.90948576507569,36.61840623626709,42.036385765075686,36.61840623626709,42.036385765075686C36.99340623626709,41.39238576507569,37.293306236267085,40.672485765075685,37.493206236267085,39.93458576507568C37.493206236267085,39.93458576507568,40.15750623626709,39.93458576507568,40.15750623626709,39.93458576507568C40.27400623626709,39.93458576507568,40.36790623626709,39.840085765075685,40.36790623626709,39.723885765075686C40.36790623626709,39.723885765075686,40.36790623626709,35.809755765075685,40.36790623626709,35.809755765075685C40.36790623626709,35.69333576507569,40.27400623626709,35.599445765075686,40.15750623626709,35.599445765075686C40.15750623626709,35.599445765075686,40.15750623626709,35.599445765075686,40.15750623626709,35.599445765075686ZM33.27040623626709,38.44898576507568C32.997506236267085,40.114485765075685,31.64250623626709,41.469385765075685,29.976306236267092,41.74328576507568C28.55830623626709,41.976885765075686,27.13035623626709,41.453285765075684,26.21438623626709,40.37488576507568C25.446476236267088,39.47048576507568,25.11742623626709,38.26898576507568,25.31229623626709,37.07868576507568C25.58618623626709,35.412705765075685,26.94065623626709,34.058705765075686,28.60640623626709,33.784815765075685C28.83410623626709,33.747705765075686,29.06450623626709,33.728425765075684,29.29190623626709,33.728425765075684C30.47820623626709,33.728425765075684,31.599806236267092,34.247525765075686,32.36880623626709,35.15275576507568C33.13670623626709,36.05803576507569,33.46550623626709,37.25908576507568,33.27040623626709,38.44898576507568C33.27040623626709,38.44898576507568,33.27040623626709,38.44898576507568,33.27040623626709,38.44898576507568Z" fill="#0AA7FF" fill-opacity="1"/></g><g filter="url(#master_svg2_0_8846)" style="mix-blend-mode:passthrough"><path d="M54.33889843444824,30.995307080078124C54.33889843444824,30.995307080078124,53.65739843444824,28.453177080078124,53.65739843444824,28.453177080078124C53.62699843444824,28.341327080078123,53.51299843444824,28.276847080078124,53.39929843444824,28.304177080078126C53.39929843444824,28.304177080078126,51.72079843444824,28.754317080078124,51.72079843444824,28.754317080078124C51.476498434448246,28.329677080078124,51.18249843444824,27.945737080078125,50.827098434448246,27.589087080078126C50.827098434448246,27.589087080078126,51.70239843444824,26.072137080078125,51.70239843444824,26.072137080078125C51.76019843444824,25.971497080078127,51.72569843444824,25.842617080078124,51.624998434448244,25.784917080078124C51.624998434448244,25.784917080078124,49.344198434448245,24.467031080078126,49.344198434448245,24.467031080078126C49.24309843444824,24.408891080078124,49.115598434448245,24.442889080078125,49.056998434448246,24.543563080078126C49.056998434448246,24.543563080078126,48.17898843444824,26.058287080078124,48.17898843444824,26.058287080078124C47.69216843444824,25.928527080078126,47.21331843444824,25.865437080078124,46.720228434448245,25.865437080078124C46.720228434448245,25.865437080078124,46.71796843444824,25.865437080078124,46.71796843444824,25.865437080078124C46.71796843444824,25.865437080078124,46.26825843444824,24.187395080078126,46.26825843444824,24.187395080078126C46.238358434448244,24.075510680078125,46.12198843444824,24.010629080078125,46.010968434448245,24.038838290078125C46.010968434448245,24.038838290078125,43.468838434448244,24.719887080078124,43.468838434448244,24.719887080078124C43.356148434448244,24.749895080078126,43.28943843444824,24.864892080078125,43.31980843444824,24.977212080078125C43.31980843444824,24.977212080078125,43.76909843444824,26.653907080078124,43.76909843444824,26.653907080078124C43.34310843444824,26.902687080078124,42.95250843444824,27.202517080078124,42.604358434448244,27.547947080078124C42.604358434448244,27.547947080078124,41.09725843444824,26.676247080078124,41.09725843444824,26.676247080078124C41.04889843444824,26.648517080078125,40.99071843444824,26.641377080078126,40.93752843444824,26.655217080078124C40.88297843444824,26.670017080078125,40.83729843444824,26.704457080078125,40.809968434448244,26.753217080078123C40.809968434448244,26.753217080078123,39.493953434448244,29.034017080078126,39.493953434448244,29.034017080078126C39.43577743444824,29.135137080078124,39.469848434448245,29.264017080078126,39.57099843444824,29.321757080078125C39.57099843444824,29.321757080078125,41.07889843444824,30.193897080078123,41.07889843444824,30.193897080078123C40.94917843444824,30.680767080078127,40.88601843444824,31.162707080078125,40.887378434448244,31.657587080078123C40.887378434448244,31.657587080078123,39.20270243444824,32.10869708007812,39.20270243444824,32.10869708007812C39.14851943444824,32.123437080078126,39.102469934448244,32.15833708007813,39.07514013444824,32.20711708007813C39.046894310448245,32.25542708007812,39.03938310444824,32.31226708007813,39.053634224448246,32.36690708007812C39.053634224448246,32.36690708007812,39.73475543444824,34.908557080078126,39.73475543444824,34.908557080078126C39.76560543444824,35.02085708007812,39.88016143444824,35.08475708007813,39.993328434448244,35.057557080078126C39.993328434448244,35.057557080078126,41.679018434448246,34.60515708007813,41.679018434448246,34.60515708007813C41.928768434448244,35.032457080078125,42.22987843444824,35.42315708007813,42.57577843444824,35.77085708007812C42.57577843444824,35.77085708007812,41.70411843444824,37.280157080078126,41.70411843444824,37.280157080078126C41.67631843444824,37.328457080078124,41.66872843444824,37.38575708007812,41.682618434448244,37.43985708007813C41.69737843444824,37.49405708007812,41.73276843444824,37.540157080078124,41.78060843444824,37.567357080078125C41.78060843444824,37.567357080078125,44.06185843444824,38.883957080078126,44.06185843444824,38.883957080078126C44.10980843444824,38.91255708007812,44.16659843444824,38.92015708007813,44.22117843444824,38.904457080078124C44.27536843444824,38.89065708007813,44.321048434448244,38.855257080078125,44.349188434448244,38.806457080078125C44.349188434448244,38.806457080078125,45.21862843444824,37.29585708007812,45.21862843444824,37.29585708007812C45.69196843444824,37.42065708007813,46.17976843444824,37.48465708007812,46.67203843444824,37.486857080078124C46.67203843444824,37.486857080078124,47.12395843444824,39.175257080078126,47.12395843444824,39.175257080078126C47.138698434448244,39.228557080078126,47.17365843444824,39.27505708007813,47.22196843444824,39.302357080078124C47.254658434448245,39.32115708007812,47.290828434448244,39.33095708007812,47.327588434448245,39.33095708007812C47.34546843444824,39.33095708007812,47.36427843444824,39.328257080078124,47.382168434448246,39.323357080078125C47.382168434448246,39.323357080078125,49.92429843444825,38.642257080078124,49.92429843444825,38.642257080078124C49.97799843444824,38.62755708007813,50.023998434448245,38.59255708007812,50.051798434448244,38.544257080078125C50.07959843444824,38.49555708007813,50.08719843444824,38.438257080078124,50.07289843444824,38.384157080078126C50.07289843444824,38.384157080078126,49.619498434448246,36.694457080078124,49.619498434448246,36.694457080078124C50.04869843444824,36.44375708007813,50.43979843444824,36.143557080078125,50.78609843444824,35.79985708007813C50.78609843444824,35.79985708007813,52.30489843444824,36.67515708007812,52.30489843444824,36.67515708007812C52.40599843444824,36.732857080078126,52.53399843444824,36.698957080078124,52.59219843444824,36.598157080078124C52.59219843444824,36.598157080078124,53.90999843444824,34.31645708007812,53.90999843444824,34.31645708007812C53.937698434448244,34.26825708007813,53.94579843444824,34.210957080078124,53.93139843444824,34.15675708007812C53.91669843444824,34.102657080078124,53.88179843444824,34.05695708007812,53.833498434448245,34.02882708007812C53.833498434448245,34.02882708007812,52.31649843444824,33.15397708007812,52.31649843444824,33.15397708007812C52.44189843444824,32.68097708007812,52.50529843444824,32.194167080078124,52.50849843444824,31.703697080078125C52.50849843444824,31.703697080078125,54.189698434448246,31.253987080078126,54.189698434448246,31.253987080078126C54.24419843444824,31.238707080078125,54.28989843444824,31.203877080078126,54.317698434448246,31.155567080078125C54.34569843444824,31.107197080078123,54.353198434448245,31.049947080078127,54.33889843444824,30.995307080078124C54.33889843444824,30.995307080078124,54.33889843444824,30.995307080078124,54.33889843444824,30.995307080078124ZM47.87698843444824,34.07215708007813C47.49800843444824,34.25475708007812,47.09921843444824,34.347357080078126,46.692068434448245,34.347357080078126C45.28069843444824,34.347357080078126,44.13687843444824,33.274337080078126,44.03045843444824,31.851407080078125C43.95073843444824,30.783257080078126,44.545508434448244,29.753177080078125,45.51027843444824,29.288677080078124C45.889328434448245,29.105647080078125,46.287538434448244,29.013027080078125,46.69560843444824,29.013027080078125C48.10651843444824,29.013027080078125,49.25069843444824,30.086537080078124,49.35629843444824,31.509527080078126C49.43639843444824,32.577567080078126,48.841738434448246,33.60768708007812,47.87698843444824,34.07215708007813C47.87698843444824,34.07215708007813,47.87698843444824,34.07215708007813,47.87698843444824,34.07215708007813Z" fill="#0AA7FF" fill-opacity="1"/></g></g></g><g style="mix-blend-mode:passthrough"><ellipse cx="57.774184703826904" cy="56.03241682052612" rx="2.612903118133545" ry="2.612903118133545" fill="#F2994A" fill-opacity="1"/></g></g></g></svg>