<svg xmlns="http://www.w3.org/2000/svg" xmlns:xlink="http://www.w3.org/1999/xlink" fill="none" version="1.1" width="72" height="72" viewBox="0 0 72 72"><defs><filter id="master_svg1_0_8833" filterUnits="objectBoundingBox" color-interpolation-filters="sRGB" x="-17.41935485601425" y="-15.677419424057007" width="69.02633285522461" height="65.49200057983398"><feFlood flood-opacity="0" result="BackgroundImageFix"/><feColorMatrix in="SourceAlpha" type="matrix" values="0 0 0 0 0 0 0 0 0 0 0 0 0 0 0 0 0 0 127 0"/><feOffset dy="2.322580575942993" dx="0.5806451439857483"/><feGaussianBlur stdDeviation="4.5"/><feColorMatrix type="matrix" values="0 0 0 0 0.3657986521720886 0 0 0 0 0.6732187271118164 0 0 0 0 0.8958333134651184 0 0 0 0.44999998807907104 0"/><feBlend mode="normal" in2="BackgroundImageFix" result="effect1_dropShadow"/><feBlend mode="normal" in="SourceGraphic" in2="effect1_dropShadow" result="shape"/></filter></defs><clipPath id="master_svg0_0_8832"><rect x="13" y="13" width="46.45161056518555" height="46.45161056518555" rx="0"/></clipPath><g style="mix-blend-mode:passthrough"><g><g style="mix-blend-mode:passthrough"><ellipse cx="36" cy="36" rx="35.65048545598984" ry="35.65048545598984" fill-opacity="0" stroke-opacity="1" stroke="#125DB5" stroke-width="0.6990290880203247" fill="none" stroke-dasharray=""/></g><g style="mix-blend-mode:passthrough"><path d="M61.9943848815918,47.6206955871582C61.7618848815918,48.121595587158204,61.979484881591794,48.716195587158204,62.480384881591796,48.9487955871582C62.981384881591794,49.1812955871582,63.57598488159179,48.963695587158206,63.808484881591795,48.462795587158205C63.808484881591795,48.462795587158205,61.9943848815918,47.6206955871582,61.9943848815918,47.6206955871582C61.9943848815918,47.6206955871582,61.9943848815918,47.6206955871582,61.9943848815918,47.6206955871582ZM50.177084881591796,62.672595587158206C50.667884881591796,62.4192955871582,50.8603848815918,61.8160955871582,50.607084881591796,61.3252955871582C50.353884881591796,60.8344955871582,49.750684881591795,60.641995587158206,49.259884881591795,60.8952955871582C49.259884881591795,60.8952955871582,50.177084881591796,62.672595587158206,50.177084881591796,62.672595587158206C50.177084881591796,62.672595587158206,50.177084881591796,62.672595587158206,50.177084881591796,62.672595587158206ZM36.2903848815918,64.0323955871582C20.6482848815918,64.0323955871582,7.967784881591797,51.351895587158204,7.967784881591797,35.709795587158204C7.967784881591797,35.709795587158204,5.967784881591797,35.709795587158204,5.967784881591797,35.709795587158204C5.967784881591797,52.4564955871582,19.543684881591798,66.0323955871582,36.2903848815918,66.0323955871582C36.2903848815918,66.0323955871582,36.2903848815918,64.0323955871582,36.2903848815918,64.0323955871582C36.2903848815918,64.0323955871582,36.2903848815918,64.0323955871582,36.2903848815918,64.0323955871582ZM7.967784881591797,35.709795587158204C7.967784881591797,20.067695587158205,20.6482848815918,7.387195587158203,36.2903848815918,7.387195587158203C36.2903848815918,7.387195587158203,36.2903848815918,5.387195587158203,36.2903848815918,5.387195587158203C19.543684881591798,5.387195587158203,5.967784881591797,18.963095587158204,5.967784881591797,35.709795587158204C5.967784881591797,35.709795587158204,7.967784881591797,35.709795587158204,7.967784881591797,35.709795587158204C7.967784881591797,35.709795587158204,7.967784881591797,35.709795587158204,7.967784881591797,35.709795587158204ZM36.2903848815918,7.387195587158203C51.9324848815918,7.387195587158203,64.6129848815918,20.067695587158205,64.6129848815918,35.709795587158204C64.6129848815918,35.709795587158204,66.6129848815918,35.709795587158204,66.6129848815918,35.709795587158204C66.6129848815918,18.963095587158204,53.037084881591795,5.387195587158203,36.2903848815918,5.387195587158203C36.2903848815918,5.387195587158203,36.2903848815918,7.387195587158203,36.2903848815918,7.387195587158203C36.2903848815918,7.387195587158203,36.2903848815918,7.387195587158203,36.2903848815918,7.387195587158203ZM64.6129848815918,35.709795587158204C64.6129848815918,39.9663955871582,63.6745848815918,44.001095587158204,61.9943848815918,47.6206955871582C61.9943848815918,47.6206955871582,63.808484881591795,48.462795587158205,63.808484881591795,48.462795587158205C65.6086848815918,44.584795587158204,66.6129848815918,40.2631955871582,66.6129848815918,35.709795587158204C66.6129848815918,35.709795587158204,64.6129848815918,35.709795587158204,64.6129848815918,35.709795587158204C64.6129848815918,35.709795587158204,64.6129848815918,35.709795587158204,64.6129848815918,35.709795587158204ZM49.259884881591795,60.8952955871582C45.375084881591796,62.899895587158206,40.966484881591796,64.0323955871582,36.2903848815918,64.0323955871582C36.2903848815918,64.0323955871582,36.2903848815918,66.0323955871582,36.2903848815918,66.0323955871582C41.2929848815918,66.0323955871582,46.0153848815918,64.82009558715819,50.177084881591796,62.672595587158206C50.177084881591796,62.672595587158206,49.259884881591795,60.8952955871582,49.259884881591795,60.8952955871582C49.259884881591795,60.8952955871582,49.259884881591795,60.8952955871582,49.259884881591795,60.8952955871582Z" fill="#0AA7FF" fill-opacity="1"/></g><g clip-path="url(#master_svg0_0_8832)" style="mix-blend-mode:passthrough"><g><g filter="url(#master_svg1_0_8833)" style="mix-blend-mode:passthrough"><path d="M36.36334196624756,33.13495132064819C37.31234196624756,33.13495132064819,38.17434196624756,33.507051320648195,38.81774196624756,34.1096513206482C40.372141966247554,30.566551320648195,42.393841966247564,24.728981320648195,40.61994196624756,21.339411320648193C39.85234196624756,19.871861320648193,38.494441966247564,19.020600320648192,36.58814196624756,18.811677020648194C36.55164196624756,18.80645121898319,36.52024196624755,18.806451320648193,36.48894196624756,18.806451320648193C36.48894196624756,18.806451320648193,36.071241966247555,18.806451320648193,36.071241966247555,18.806451320648193C36.03464196624756,18.806451320648193,36.00334196624756,18.80645121898319,35.971941966247556,18.811677020648194C34.06044196624756,19.020564320648194,32.70784196624756,19.871821320648195,31.934941966247557,21.339411320648193C30.142141966247557,24.761961320648194,32.225341966247555,30.690751320648193,33.790841966247555,34.22255132064819C34.44464196624756,33.552651320648195,35.35564196624756,33.13495132064819,36.36334196624756,33.13495132064819C36.36334196624756,33.13495132064819,36.36334196624756,33.13495132064819,36.36334196624756,33.13495132064819ZM38.789141966247556,36.73215132064819C38.789141966247556,35.394651320648194,37.700941966247555,34.30635132064819,36.36334196624756,34.30635132064819C35.02564196624756,34.30635132064819,33.93734196624756,35.394651320648194,33.93734196624756,36.73215132064819C33.93734196624756,38.0698513206482,35.02564196624756,39.158151320648194,36.36334196624756,39.158151320648194C37.700941966247555,39.158151320648194,38.789141966247556,38.0698513206482,38.789141966247556,36.73215132064819C38.789141966247556,36.73215132064819,38.789141966247556,36.73215132064819,38.789141966247556,36.73215132064819ZM32.76594196624756,36.73215132064819C32.76594196624756,36.45625132064819,32.80004196624756,36.188551320648195,32.85914196624756,35.930251320648196C29.024191966247557,36.33165132064819,22.761131966247557,37.48065132064819,20.67497996624756,40.77795132064819C19.792360966247557,42.177651320648195,19.73494996624756,43.775651320648194,20.50786196624756,45.5304513206482C20.51860196624756,45.56145132064819,20.532604966247558,45.5912513206482,20.549629966247558,45.61925132064819C20.549629966247558,45.61925132064819,20.75851796624756,45.979651320648195,20.75851796624756,45.979651320648195C20.77415996624756,46.01095132064819,20.795028966247557,46.03705132064819,20.815931966247557,46.06315132064819C21.90232196624756,47.54635132064819,23.244521966247557,48.2984513206482,24.81128196624756,48.2984513206482C24.88440196624756,48.2984513206482,24.95226196624756,48.2984513206482,25.02017196624756,48.293251320648196C28.914451966247558,48.1353513206482,33.04094196624756,43.290451320648195,35.30774196624756,40.1708513206482C33.83764196624756,39.71865132064819,32.76594196624756,38.3485513206482,32.76594196624756,36.73215132064819C32.76594196624756,36.73215132064819,32.76594196624756,36.73215132064819,32.76594196624756,36.73215132064819C32.76594196624756,36.73215132064819,32.76594196624756,36.73215132064819,32.76594196624756,36.73215132064819ZM52.28214196624756,40.77795132064819C50.15054196624756,37.4127513206482,43.66614196624756,36.28105132064819,39.86004196624756,35.901951320648195C39.923541966247555,36.169051320648194,39.96064196624756,36.446051320648195,39.96064196624756,36.73215132064819C39.96064196624756,38.2800513206482,38.97614196624756,39.598851320648194,37.60184196624756,40.10515132064819C39.85644196624756,43.22145132064819,44.01794196624756,48.13515132064819,47.94224196624756,48.293251320648196C48.010041966247556,48.2984513206482,48.07794196624756,48.2984513206482,48.14594196624756,48.2984513206482C49.71264196624756,48.2984513206482,51.05484196624756,47.54635132064819,52.14634196624756,46.06315132064819C52.16204196624756,46.03705132064819,52.18294196624756,46.01095132064819,52.19864196624756,45.979651320648195C52.19864196624756,45.979651320648195,52.40754196624756,45.61925132064819,52.40754196624756,45.61925132064819C52.423141966247556,45.59315132064819,52.43884196624756,45.561851320648195,52.45444196624756,45.53055132064819C53.22744196624756,43.7757513206482,53.169941966247556,42.177651320648195,52.28214196624756,40.77795132064819C52.28214196624756,40.77795132064819,52.28214196624756,40.77795132064819,52.28214196624756,40.77795132064819C52.28214196624756,40.77795132064819,52.28214196624756,40.77795132064819,52.28214196624756,40.77795132064819Z" fill="#0AA7FF" fill-opacity="1"/></g></g></g><g style="mix-blend-mode:passthrough"><ellipse cx="57.774184703826904" cy="56.03241682052612" rx="2.612903118133545" ry="2.612903118133545" fill="#F2994A" fill-opacity="1"/></g></g></g></svg>