<svg xmlns="http://www.w3.org/2000/svg" xmlns:xlink="http://www.w3.org/1999/xlink" fill="none" version="1.1" width="72" height="72" viewBox="0 0 72 72"><defs><filter id="master_svg1_0_8884" filterUnits="objectBoundingBox" color-interpolation-filters="sRGB" x="-15" y="-12" width="62.16181182861328" height="60.783111572265625"><feFlood flood-opacity="0" result="BackgroundImageFix"/><feColorMatrix in="SourceAlpha" type="matrix" values="0 0 0 0 0 0 0 0 0 0 0 0 0 0 0 0 0 0 127 0"/><feOffset dy="4" dx="1"/><feGaussianBlur stdDeviation="4"/><feColorMatrix type="matrix" values="0 0 0 0 0.3657986521720886 0 0 0 0 0.6732187271118164 0 0 0 0 0.8958333134651184 0 0 0 0.6800000071525574 0"/><feBlend mode="normal" in2="BackgroundImageFix" result="effect1_dropShadow"/><feBlend mode="normal" in="SourceGraphic" in2="effect1_dropShadow" result="shape"/></filter></defs><clipPath id="master_svg0_0_8883"><rect x="13" y="13" width="46.45161056518555" height="46.45161056518555" rx="0"/></clipPath><g style="mix-blend-mode:passthrough"><g><g style="mix-blend-mode:passthrough"><ellipse cx="36" cy="36" rx="35.65048545598984" ry="35.65048545598984" fill-opacity="0" stroke-opacity="1" stroke="#125DB5" stroke-width="0.6990290880203247" fill="none" stroke-dasharray=""/></g><g style="mix-blend-mode:passthrough"><path d="M61.9943848815918,47.6206955871582C61.7618848815918,48.121595587158204,61.979484881591794,48.716195587158204,62.480384881591796,48.9487955871582C62.981384881591794,49.1812955871582,63.57598488159179,48.963695587158206,63.808484881591795,48.462795587158205C63.808484881591795,48.462795587158205,61.9943848815918,47.6206955871582,61.9943848815918,47.6206955871582C61.9943848815918,47.6206955871582,61.9943848815918,47.6206955871582,61.9943848815918,47.6206955871582ZM50.177084881591796,62.672595587158206C50.667884881591796,62.4192955871582,50.8603848815918,61.8160955871582,50.607084881591796,61.3252955871582C50.353884881591796,60.8344955871582,49.750684881591795,60.641995587158206,49.259884881591795,60.8952955871582C49.259884881591795,60.8952955871582,50.177084881591796,62.672595587158206,50.177084881591796,62.672595587158206C50.177084881591796,62.672595587158206,50.177084881591796,62.672595587158206,50.177084881591796,62.672595587158206ZM36.2903848815918,64.0323955871582C20.6482848815918,64.0323955871582,7.967784881591797,51.351895587158204,7.967784881591797,35.709795587158204C7.967784881591797,35.709795587158204,5.967784881591797,35.709795587158204,5.967784881591797,35.709795587158204C5.967784881591797,52.4564955871582,19.543684881591798,66.0323955871582,36.2903848815918,66.0323955871582C36.2903848815918,66.0323955871582,36.2903848815918,64.0323955871582,36.2903848815918,64.0323955871582C36.2903848815918,64.0323955871582,36.2903848815918,64.0323955871582,36.2903848815918,64.0323955871582ZM7.967784881591797,35.709795587158204C7.967784881591797,20.067695587158205,20.6482848815918,7.387195587158203,36.2903848815918,7.387195587158203C36.2903848815918,7.387195587158203,36.2903848815918,5.387195587158203,36.2903848815918,5.387195587158203C19.543684881591798,5.387195587158203,5.967784881591797,18.963095587158204,5.967784881591797,35.709795587158204C5.967784881591797,35.709795587158204,7.967784881591797,35.709795587158204,7.967784881591797,35.709795587158204C7.967784881591797,35.709795587158204,7.967784881591797,35.709795587158204,7.967784881591797,35.709795587158204ZM36.2903848815918,7.387195587158203C51.9324848815918,7.387195587158203,64.6129848815918,20.067695587158205,64.6129848815918,35.709795587158204C64.6129848815918,35.709795587158204,66.6129848815918,35.709795587158204,66.6129848815918,35.709795587158204C66.6129848815918,18.963095587158204,53.037084881591795,5.387195587158203,36.2903848815918,5.387195587158203C36.2903848815918,5.387195587158203,36.2903848815918,7.387195587158203,36.2903848815918,7.387195587158203C36.2903848815918,7.387195587158203,36.2903848815918,7.387195587158203,36.2903848815918,7.387195587158203ZM64.6129848815918,35.709795587158204C64.6129848815918,39.9663955871582,63.6745848815918,44.001095587158204,61.9943848815918,47.6206955871582C61.9943848815918,47.6206955871582,63.808484881591795,48.462795587158205,63.808484881591795,48.462795587158205C65.6086848815918,44.584795587158204,66.6129848815918,40.2631955871582,66.6129848815918,35.709795587158204C66.6129848815918,35.709795587158204,64.6129848815918,35.709795587158204,64.6129848815918,35.709795587158204C64.6129848815918,35.709795587158204,64.6129848815918,35.709795587158204,64.6129848815918,35.709795587158204ZM49.259884881591795,60.8952955871582C45.375084881591796,62.899895587158206,40.966484881591796,64.0323955871582,36.2903848815918,64.0323955871582C36.2903848815918,64.0323955871582,36.2903848815918,66.0323955871582,36.2903848815918,66.0323955871582C41.2929848815918,66.0323955871582,46.0153848815918,64.82009558715819,50.177084881591796,62.672595587158206C50.177084881591796,62.672595587158206,49.259884881591795,60.8952955871582,49.259884881591795,60.8952955871582C49.259884881591795,60.8952955871582,49.259884881591795,60.8952955871582,49.259884881591795,60.8952955871582Z" fill="#0AA7FF" fill-opacity="1"/></g><g clip-path="url(#master_svg0_0_8883)" style="mix-blend-mode:passthrough"><g><g filter="url(#master_svg1_0_8884)" style="mix-blend-mode:passthrough"><path d="M28.13481513031006,33.184762742614744C28.46793513031006,32.60676274261475,28.857565130310057,32.06326274261475,29.297975130310057,31.562202742614744C29.87017513031006,32.244262742614744,30.582575130310058,32.79496274261474,31.386735130310058,33.17696274261475C32.190835130310056,33.558962742614746,33.06783513031006,33.76326274261474,33.95793513031006,33.775962742614745C34.84183513031006,33.77326274261475,35.71343513031006,33.56826274261475,36.50573513031006,33.17656274261475C40.52143513031006,31.223622742614744,44.25253513031006,29.365852742614745,44.25253513031006,29.365852742614745C44.25253513031006,29.365852742614745,40.16633513031006,20.635252742614746,33.302735130310055,21.964978742614747C29.268695130310057,22.745603742614747,27.84837513031006,25.491072742614747,28.070755130310058,28.727952742614747C28.09287513031006,29.038252742614745,28.149035130310057,29.34512274261475,28.23822513031006,29.643112742614747C27.495225130310057,30.389412742614745,26.852575130310058,31.229262742614747,26.32646513031006,32.14146274261475C26.253785130310057,32.26046274261475,26.20564513031006,32.392662742614746,26.184875130310058,32.530462742614745C26.16410513031006,32.66826274261474,26.17113513031006,32.808762742614746,26.20553513031006,32.94386274261475C26.23993513031006,33.078862742614746,26.30101513031006,33.20566274261475,26.38518513031006,33.31676274261474C26.46935513031006,33.42786274261475,26.574895130310058,33.520862742614746,26.695605130310057,33.59056274261475C26.81631513031006,33.660162742614745,26.94973513031006,33.70496274261475,27.08801513031006,33.722262742614745C27.226295130310056,33.73946274261475,27.36662513031006,33.72896274261475,27.500755130310058,33.69106274261475C27.63488513031006,33.65326274261474,27.760075130310057,33.58896274261475,27.86897513031006,33.50206274261475C27.97787513031006,33.415062742614744,28.06826513031006,33.307262742614746,28.13481513031006,33.184762742614744ZM38.967535130310054,49.782162742614744C38.967535130310054,49.782162742614744,39.225535130310064,45.62096274261475,39.54223513031006,41.167862742614744C39.63773513031006,39.909362742614746,40.13103513031006,38.71386274261475,40.950835130310054,37.75426274261474C41.770635130310055,36.79466274261475,42.87433513031006,36.12066274261475,44.102435130310056,35.829662742614744C43.91163513031006,35.33816274261474,43.68303513031006,34.86206274261475,43.41883513031006,34.40576274261475C43.28043513031006,34.165962742614745,43.24303513031006,33.88096274261475,43.31483513031006,33.61356274261475C43.38653513031006,33.346162742614744,43.56153513031006,33.118262742614746,43.80133513031006,32.97986274261474C44.04113513031006,32.84156274261475,44.326135130310064,32.80416274261475,44.593435130310056,32.87586274261474C44.86083513031006,32.947662742614746,45.08883513031006,33.12266274261475,45.22713513031006,33.362462742614746C45.65383513031006,34.099162742614745,46.00273513031006,34.87816274261475,46.26863513031006,35.686962742614746C46.736835130310055,35.747762742614746,47.192335130310056,35.883462742614746,47.61753513031006,36.088662742614744C50.52593513031006,37.51176274261475,52.19333513031006,40.11536274261475,50.85263513031006,44.00026274261475C49.02783513031006,49.28706274261475,42.514635130310054,49.81506274261474,39.97963513031006,49.81506274261474C39.35183513031006,49.81506274261474,38.967535130310054,49.782162742614744,38.967535130310054,49.782162742614744ZM22.99623513031006,48.18056274261475C18.34906513031006,42.82786274261474,23.991925130310058,35.12586274261474,23.991925130310058,35.12586274261474C23.991925130310058,35.12586274261474,27.40453513031006,37.29936274261475,31.103595130310058,39.80046274261474C32.27103513031006,40.60636274261475,33.11533513031006,41.79936274261475,33.487235130310054,43.16816274261475C33.85913513031006,44.53706274261475,33.73443513031006,45.99336274261475,33.13523513031006,47.279162742614744C33.91733513031006,47.46406274261474,34.718435130310056,47.55626274261475,35.521935130310055,47.55366274261475C35.79883513031006,47.55366274261475,36.064335130310056,47.66366274261475,36.26003513031006,47.85936274261475C36.45573513031006,48.05516274261475,36.56573513031006,48.32066274261474,36.56573513031006,48.59736274261475C36.56573513031006,48.87416274261474,36.45573513031006,49.13976274261475,36.26003513031006,49.335462742614745C36.064335130310056,49.53116274261475,35.79883513031006,49.641162742614746,35.521935130310055,49.641162742614746C34.26193513031006,49.642662742614746,33.00913513031006,49.45056274261475,31.807335130310058,49.071962742614744C31.69783513031006,49.163562742614744,31.583635130310057,49.249462742614746,31.46513513031006,49.329062742614745C30.36095513031006,50.12306274261475,29.044865130310058,50.56916274261475,27.68551513031006,50.61026274261475C26.772805130310058,50.577362742614746,25.87877513031006,50.34246274261474,25.06788513031006,49.92226274261475C24.25698513031006,49.50206274261475,23.54943513031006,48.90726274261475,22.99623513031006,48.18056274261475Z" fill-rule="evenodd" fill="#0AA7FF" fill-opacity="1"/></g></g></g><g style="mix-blend-mode:passthrough"><ellipse cx="57.774184703826904" cy="56.03241682052612" rx="2.612903118133545" ry="2.612903118133545" fill="#F2994A" fill-opacity="1"/></g></g></g></svg>