<svg xmlns="http://www.w3.org/2000/svg" xmlns:xlink="http://www.w3.org/1999/xlink" fill="none" version="1.1" width="697.3642578125" height="86.384765625" viewBox="0 0 697.3642578125 86.384765625"><defs><filter id="master_svg1_0_5799" filterUnits="objectBoundingBox" color-interpolation-filters="sRGB" x="0" y="0" width="610" height="84"><feFlood flood-opacity="0" result="BackgroundImageFix"/><feBlend mode="normal" in="SourceGraphic" in2="BackgroundImageFix" result="shape"/><feColorMatrix in="SourceAlpha" type="matrix" result="hardAlpha" values="0 0 0 0 0 0 0 0 0 0 0 0 0 0 0 0 0 0 127 0"/><feOffset dy="-2" dx="0"/><feGaussianBlur stdDeviation="0"/><feComposite in2="hardAlpha" operator="arithmetic" k2="-1" k3="1"/><feColorMatrix type="matrix" values="0 0 0 0 0.14901961386203766 0 0 0 0 0.7843137383460999 0 0 0 0 0.8901960849761963 0 0 0 1 0"/><feBlend mode="normal" in2="shape" result="effect1_innerShadow"/></filter><linearGradient x1="0.398969829082489" y1="0.0039207823574543" x2="0.398969829082489" y2="1.0039207935333252" id="master_svg2__1161"><stop offset="0%" stop-color="#000000" stop-opacity="1"/><stop offset="54.28881049156189%" stop-color="#17395F" stop-opacity="1"/><stop offset="100%" stop-color="#245592" stop-opacity="1"/></linearGradient><linearGradient x1="-4.293285369873047" y1="0.0039207823574543" x2="-4.293285369873047" y2="1.0039207935333252" id="master_svg3__1170"><stop offset="0%" stop-color="#000000" stop-opacity="1"/><stop offset="54.28881049156189%" stop-color="#17395F" stop-opacity="1"/><stop offset="100%" stop-color="#245592" stop-opacity="1"/></linearGradient><linearGradient x1="-2.368593215942383" y1="4.976860666205257e-14" x2="-2.368593215942383" y2="1" id="master_svg4__1171"><stop offset="0%" stop-color="#28C3DF" stop-opacity="0"/><stop offset="100%" stop-color="#26C7E3" stop-opacity="1"/></linearGradient></defs><clipPath id="master_svg0_0_5799"><rect x="0" y="1.384765625" width="610" height="84" rx="0"/></clipPath><g style="mix-blend-mode:passthrough"><g><g style="mix-blend-mode:passthrough"><g><g filter="url(#master_svg1_0_5799)" style="mix-blend-mode:passthrough"><rect x="0" y="1.384765625" width="610" height="84" rx="0" fill="url(#master_svg2__1161)" fill-opacity="1"/><g></g></g><g style="mix-blend-mode:passthrough"><g><g style="mix-blend-mode:passthrough"><path d="M244.07481423339843,81.582763671875C244.07481423339843,81.582763671875,238.67271423339844,86.38476367187499,238.67271423339844,86.38476367187499C238.67271423339844,86.38476367187499,371.3277142333984,86.38476367187499,371.3277142333984,86.38476367187499C371.3277142333984,86.38476367187499,367.52571423339845,81.582763671875,367.52571423339845,81.582763671875C367.52571423339845,81.582763671875,244.07481423339843,81.582763671875,244.07481423339843,81.582763671875C244.07481423339843,81.582763671875,244.07481423339843,81.582763671875,244.07481423339843,81.582763671875Z" fill="#15F6EE" fill-opacity="1"/></g></g></g></g></g><g style="mix-blend-mode:passthrough"><g><g style="mix-blend-mode:passthrough"><path d="M610,1.384765625C844.646,1.384765625,460.85400000000004,1.384765625,695.5,1.384765625C695.5,1.384765625,661.3192,58.594165625,661.3192,58.594165625C651.3916,75.210265625,633.4604,85.384765625,614.10445,85.384765625C614.10445,85.384765625,610,85.384765625,610,85.384765625C610,85.384765625,610,1.384765625,610,1.384765625C610,1.384765625,610,1.384765625,610,1.384765625Z" fill="url(#master_svg3__1170)" fill-opacity="1"/></g><g style="mix-blend-mode:passthrough"><path d="M662.3311416625977,57.624529870319364C662.3311416625977,57.624529870319364,661.4728416625976,57.11102987031936,661.4728416625976,57.11102987031936C661.4728416625976,57.11102987031936,661.4728416625976,57.11102987031936,661.4728416625976,57.11102987031936C661.4728416625976,57.11102987031936,662.3311416625977,57.624529870319364,662.3311416625977,57.624529870319364C662.3311416625977,57.624529870319364,662.3311416625977,57.624529870319364,662.3311416625977,57.624529870319364ZM695.6481416625977,0.00024287031936642833C695.6481416625977,0.00024287031936642833,661.4728416625976,57.11102987031936,661.4728416625976,57.11102987031936C661.4728416625976,57.11102987031936,663.1891416625976,58.138029870319365,663.1891416625976,58.138029870319365C663.1891416625976,58.138029870319365,697.3641416625976,1.0272168703193665,697.3641416625976,1.0272168703193665C697.3641416625976,1.0272168703193665,695.6481416625977,0.00024287031936642833,695.6481416625977,0.00024287031936642833C695.6481416625977,0.00024287031936642833,695.6481416625977,0.00024287031936642833,695.6481416625977,0.00024287031936642833ZM615.1355416625977,83.38272987031937C615.1355416625977,83.38272987031937,562.0061416625977,83.38272987031937,562.0061416625977,83.38272987031937C562.0061416625977,83.38272987031937,562.0061416625977,85.38272987031937,562.0061416625977,85.38272987031937C562.0061416625977,85.38272987031937,615.1355416625977,85.38272987031937,615.1355416625977,85.38272987031937C615.1355416625977,85.38272987031937,615.1355416625977,83.38272987031937,615.1355416625977,83.38272987031937C615.1355416625977,83.38272987031937,615.1355416625977,83.38272987031937,615.1355416625977,83.38272987031937ZM661.4728416625976,57.11102987031936C651.7213416625976,73.40702987031936,634.1264416625977,83.38272987031937,615.1355416625977,83.38272987031937C615.1355416625977,83.38272987031937,615.1355416625977,85.38272987031937,615.1355416625977,85.38272987031937C634.8297416625976,85.38272987031937,653.0763416625977,75.03752987031936,663.1891416625976,58.138029870319365C663.1891416625976,58.138029870319365,661.4728416625976,57.11102987031936,661.4728416625976,57.11102987031936C661.4728416625976,57.11102987031936,661.4728416625976,57.11102987031936,661.4728416625976,57.11102987031936Z" fill="url(#master_svg4__1171)" fill-opacity="1"/></g></g></g></g></g></svg>