<svg xmlns="http://www.w3.org/2000/svg" xmlns:xlink="http://www.w3.org/1999/xlink" fill="none" version="1.1" width="3800" height="114" viewBox="0 0 3800 114"><defs><linearGradient x1="0.49579811096191406" y1="-0.08799999952316284" x2="0.4999997913837433" y2="0.9999998211860657" id="master_svg0__2"><stop offset="0%" stop-color="#1B7EF2" stop-opacity="0"/><stop offset="100%" stop-color="#1B7EF2" stop-opacity="0.38999998569488525"/></linearGradient><linearGradient x1="0.5989465117454529" y1="0.07689473032951355" x2="1.5352928638458252" y2="5.000050067901611" id="master_svg1__3"><stop offset="0%" stop-color="#1A5AA4" stop-opacity="0.2800000011920929"/><stop offset="100%" stop-color="#0669DD" stop-opacity="0.6499999761581421"/></linearGradient><linearGradient x1="6.140469821502847e-8" y1="-0.07936518639326096" x2="0.6176469922065735" y2="0.9999998807907104" id="master_svg2__4"><stop offset="0%" stop-color="#6D8FB8" stop-opacity="0.05000000074505806"/><stop offset="100%" stop-color="#6D8FB8" stop-opacity="1"/></linearGradient><linearGradient x1="0.49579814076423645" y1="-0.08799999952316284" x2="0.4999998211860657" y2="0.9999998211860657" id="master_svg3__5"><stop offset="0%" stop-color="#1B7EF2" stop-opacity="0"/><stop offset="100%" stop-color="#1B7EF2" stop-opacity="0.38999998569488525"/></linearGradient><linearGradient x1="0.5989465117454529" y1="0.07689473032951355" x2="1.5352928638458252" y2="5.000050067901611" id="master_svg4__3"><stop offset="0%" stop-color="#1A5AA4" stop-opacity="0.2800000011920929"/><stop offset="100%" stop-color="#0669DD" stop-opacity="0.6499999761581421"/></linearGradient><linearGradient x1="6.894330795148562e-8" y1="-0.08800011873245239" x2="0.6176469922065735" y2="0.9999998807907104" id="master_svg5__6"><stop offset="0%" stop-color="#6D8FB8" stop-opacity="0.05000000074505806"/><stop offset="100%" stop-color="#6D8FB8" stop-opacity="1"/></linearGradient><linearGradient x1="0.4996587038040161" y1="-0.3888886272907257" x2="0.4996587038040161" y2="0.9999997615814209" id="master_svg6__7"><stop offset="0%" stop-color="#050607" stop-opacity="0.3100000023841858"/><stop offset="55.20833134651184%" stop-color="#10437F" stop-opacity="0.5400000214576721"/><stop offset="78.64583134651184%" stop-color="#1767C5" stop-opacity="0.7799999713897705"/><stop offset="100%" stop-color="#1B7EF2" stop-opacity="0.699999988079071"/></linearGradient><filter id="master_svg7_0_6659" filterUnits="objectBoundingBox" color-interpolation-filters="sRGB" x="-61" y="-58" width="160" height="81"><feFlood flood-opacity="0" result="BackgroundImageFix"/><feColorMatrix in="SourceAlpha" type="matrix" values="0 0 0 0 0 0 0 0 0 0 0 0 0 0 0 0 0 0 127 0"/><feMorphology radius="5" operator="dilate" in="SourceAlpha" result="effect1_dropShadow"/><feOffset dy="1" dx="0"/><feGaussianBlur stdDeviation="4.5"/><feColorMatrix type="matrix" values="0 0 0 0 0.5684548616409302 0 0 0 0 0.7650489807128906 0 0 0 0 0.9958333373069763 0 0 0 0.8299999833106995 0"/><feBlend mode="normal" in2="BackgroundImageFix" result="effect1_dropShadow"/><feColorMatrix in="SourceAlpha" type="matrix" values="0 0 0 0 0 0 0 0 0 0 0 0 0 0 0 0 0 0 127 0"/><feMorphology radius="2" operator="dilate" in="SourceAlpha" result="effect2_dropShadow"/><feOffset dy="2" dx="0"/><feGaussianBlur stdDeviation="9"/><feColorMatrix type="matrix" values="0 0 0 0 0.40552085638046265 0 0 0 0 0.65789794921875 0 0 0 0 0.9541666507720947 0 0 0 0.5199999809265137 0"/><feBlend mode="normal" in2="effect1_dropShadow" result="effect2_dropShadow"/><feBlend mode="normal" in="SourceGraphic" in2="effect2_dropShadow" result="shape"/></filter><linearGradient x1="0.013698608614504337" y1="0.054794665426015854" x2="0.2791323959827423" y2="0.8767048120498657" id="master_svg8__9"><stop offset="0%" stop-color="#1A5AA4" stop-opacity="0.8700000047683716"/><stop offset="100%" stop-color="#0669DD" stop-opacity="0.6499999761581421"/></linearGradient><linearGradient x1="0.013698608614504337" y1="0.054794665426015854" x2="0.2791323959827423" y2="0.8767048120498657" id="master_svg9__9"><stop offset="0%" stop-color="#1A5AA4" stop-opacity="0.8700000047683716"/><stop offset="100%" stop-color="#0669DD" stop-opacity="0.6499999761581421"/></linearGradient><linearGradient x1="0.5007898211479187" y1="-10.277778625488281" x2="0.5007898211479187" y2="0.8333332538604736" id="master_svga__00"><stop offset="0%" stop-color="#080B0E" stop-opacity="1"/><stop offset="100%" stop-color="#96C6FE" stop-opacity="1"/></linearGradient><linearGradient x1="0.5" y1="-0.3986012041568756" x2="0.5" y2="0.9999998211860657" id="master_svgb__01"><stop offset="0%" stop-color="#14202E" stop-opacity="1"/><stop offset="100%" stop-color="#96C6FE" stop-opacity="1"/></linearGradient><linearGradient x1="-0.20000000298023224" y1="-1.0627525030522996e-14" x2="-0.20000000298023224" y2="1" id="master_svgc__02"><stop offset="0%" stop-color="#1B7EF2" stop-opacity="0.41999998688697815"/><stop offset="100%" stop-color="#1B7EF2" stop-opacity="0"/></linearGradient><linearGradient x1="0.14166668057441711" y1="1.8255398074825714e-14" x2="0.14166662096977234" y2="1" id="master_svgd__03"><stop offset="0%" stop-color="#29AFFA" stop-opacity="1"/><stop offset="95.98060250282288%" stop-color="#29AFFA" stop-opacity="0"/><stop offset="100%" stop-color="#29AFFA" stop-opacity="0"/></linearGradient><linearGradient x1="0.5638198852539062" y1="0.06250012665987015" x2="0.5638198852539062" y2="0.9375" id="master_svge__04"><stop offset="0%" stop-color="#1B7EF2" stop-opacity="0.41999998688697815"/><stop offset="100%" stop-color="#1B7EF2" stop-opacity="0"/></linearGradient><linearGradient x1="0.4698498845100403" y1="0.06249992549419403" x2="0.4698498845100403" y2="1" id="master_svgf__05"><stop offset="0%" stop-color="#29AFFA" stop-opacity="1"/><stop offset="59.89583134651184%" stop-color="#29AFFA" stop-opacity="0"/><stop offset="100%" stop-color="#29AFFA" stop-opacity="0"/></linearGradient><linearGradient x1="0.5" y1="-3.0616171314629196e-17" x2="0.5" y2="1" id="master_svgg__06"><stop offset="0%" stop-color="#1B7EF2" stop-opacity="0.41999998688697815"/><stop offset="100%" stop-color="#1B7EF2" stop-opacity="0"/></linearGradient><linearGradient x1="0.6314103007316589" y1="-8.073737804616815e-14" x2="0.6314102411270142" y2="1" id="master_svgh__07"><stop offset="0%" stop-color="#29AFFA" stop-opacity="1"/><stop offset="95.98060250282288%" stop-color="#29AFFA" stop-opacity="0"/><stop offset="100%" stop-color="#29AFFA" stop-opacity="0"/></linearGradient><linearGradient x1="0.3606557250022888" y1="-7.0748109282060215e-15" x2="0.3606557250022888" y2="1" id="master_svgi__08"><stop offset="0%" stop-color="#1B7EF2" stop-opacity="0.41999998688697815"/><stop offset="100%" stop-color="#1B7EF2" stop-opacity="0"/></linearGradient><linearGradient x1="0.5286885499954224" y1="-1.3257591639087574e-13" x2="0.5286885499954224" y2="1" id="master_svgj__09"><stop offset="0%" stop-color="#29AFFA" stop-opacity="1"/><stop offset="95.98060250282288%" stop-color="#29AFFA" stop-opacity="0"/><stop offset="100%" stop-color="#29AFFA" stop-opacity="0"/></linearGradient><linearGradient x1="0.3606557250022888" y1="-7.0748109282060215e-15" x2="0.3606557250022888" y2="1" id="master_svgk__108"><stop offset="0%" stop-color="#164277" stop-opacity="1"/><stop offset="100%" stop-color="#14253A" stop-opacity="0.11999999731779099"/></linearGradient><linearGradient x1="0.5286885499954224" y1="-1.3257591639087574e-13" x2="0.5286885499954224" y2="1" id="master_svgl__09"><stop offset="0%" stop-color="#29AFFA" stop-opacity="1"/><stop offset="95.98060250282288%" stop-color="#29AFFA" stop-opacity="0"/><stop offset="100%" stop-color="#29AFFA" stop-opacity="0"/></linearGradient><filter id="master_svgm_0_6670" filterUnits="objectBoundingBox" color-interpolation-filters="sRGB" x="-61" y="-61" width="152" height="81"><feFlood flood-opacity="0" result="BackgroundImageFix"/><feColorMatrix in="SourceAlpha" type="matrix" values="0 0 0 0 0 0 0 0 0 0 0 0 0 0 0 0 0 0 127 0"/><feMorphology radius="5" operator="dilate" in="SourceAlpha" result="effect1_dropShadow"/><feOffset dy="0" dx="0"/><feGaussianBlur stdDeviation="4.5"/><feColorMatrix type="matrix" values="0 0 0 0 0.5684548616409302 0 0 0 0 0.7650489807128906 0 0 0 0 0.9958333373069763 0 0 0 0.8299999833106995 0"/><feBlend mode="normal" in2="BackgroundImageFix" result="effect1_dropShadow"/><feColorMatrix in="SourceAlpha" type="matrix" values="0 0 0 0 0 0 0 0 0 0 0 0 0 0 0 0 0 0 127 0"/><feMorphology radius="2" operator="dilate" in="SourceAlpha" result="effect2_dropShadow"/><feOffset dy="0" dx="0"/><feGaussianBlur stdDeviation="9"/><feColorMatrix type="matrix" values="0 0 0 0 0.40552085638046265 0 0 0 0 0.65789794921875 0 0 0 0 0.9541666507720947 0 0 0 0.5199999809265137 0"/><feBlend mode="normal" in2="effect1_dropShadow" result="effect2_dropShadow"/><feBlend mode="normal" in="SourceGraphic" in2="effect2_dropShadow" result="shape"/></filter><filter id="master_svgn_0_6671" filterUnits="objectBoundingBox" color-interpolation-filters="sRGB" x="-61" y="-61" width="152" height="81"><feFlood flood-opacity="0" result="BackgroundImageFix"/><feColorMatrix in="SourceAlpha" type="matrix" values="0 0 0 0 0 0 0 0 0 0 0 0 0 0 0 0 0 0 127 0"/><feMorphology radius="5" operator="dilate" in="SourceAlpha" result="effect1_dropShadow"/><feOffset dy="0" dx="0"/><feGaussianBlur stdDeviation="4.5"/><feColorMatrix type="matrix" values="0 0 0 0 0.5684548616409302 0 0 0 0 0.7650489807128906 0 0 0 0 0.9958333373069763 0 0 0 0.8299999833106995 0"/><feBlend mode="normal" in2="BackgroundImageFix" result="effect1_dropShadow"/><feColorMatrix in="SourceAlpha" type="matrix" values="0 0 0 0 0 0 0 0 0 0 0 0 0 0 0 0 0 0 127 0"/><feMorphology radius="2" operator="dilate" in="SourceAlpha" result="effect2_dropShadow"/><feOffset dy="0" dx="0"/><feGaussianBlur stdDeviation="9"/><feColorMatrix type="matrix" values="0 0 0 0 0.40552085638046265 0 0 0 0 0.65789794921875 0 0 0 0 0.9541666507720947 0 0 0 0.5199999809265137 0"/><feBlend mode="normal" in2="effect1_dropShadow" result="effect2_dropShadow"/><feBlend mode="normal" in="SourceGraphic" in2="effect2_dropShadow" result="shape"/></filter></defs><g style="mix-blend-mode:passthrough"><g><g style="mix-blend-mode:passthrough"><g><g style="mix-blend-mode:passthrough"><g><g style="mix-blend-mode:passthrough"><path d="M1443,0.5C1443,0.5,1529.2899,0.5,1529.2899,0.5C1529.2899,0.5,1561,63,1561,63C1561,63,1477.7059,63,1477.7059,63C1477.7059,63,1443,29,1443,29C1443,29,1443,0.5,1443,0.5C1443,0.5,1443,0.5,1443,0.5Z" fill="url(#master_svg0__2)" fill-opacity="1"/></g><g style="mix-blend-mode:passthrough"><path d="M1560.499976953125,62.49989C1560.499976953125,62.49989,1476.000016953125,61.99989,1476.000016953125,61.99989C1476.000016953125,61.99989,1469.036376953125,56,1469.036376953125,56C1469.036376953125,56,1557.536376953125,56.5,1557.536376953125,56.5C1557.536376953125,56.5,1560.499976953125,62.49989,1560.499976953125,62.49989C1560.499976953125,62.49989,1560.499976953125,62.49989,1560.499976953125,62.49989Z" fill-rule="evenodd" fill="url(#master_svg1__3)" fill-opacity="1"/></g><g style="mix-blend-mode:passthrough"><path d="M1477,63C1477,63,1476.3032,63.7173,1476.3032,63.7173C1476.3032,63.7173,1476.5942,64,1476.5942,64C1476.5942,64,1477,64,1477,64C1477,64,1477,63,1477,63C1477,63,1477,63,1477,63ZM1442,29C1442,29,1441,29,1441,29C1441,29,1441,29.4227,1441,29.4227C1441,29.4227,1441.303214,29.7173,1441.303214,29.7173C1441.303214,29.7173,1442,29,1442,29C1442,29,1442,29,1442,29ZM1561,62C1561,62,1477,62,1477,62C1477,62,1477,64,1477,64C1477,64,1561,64,1561,64C1561,64,1561,62,1561,62C1561,62,1561,62,1561,62ZM1477.6968,62.2827C1477.6968,62.2827,1442.69679,28.2827,1442.69679,28.2827C1442.69679,28.2827,1441.303214,29.7173,1441.303214,29.7173C1441.303214,29.7173,1476.3032,63.7173,1476.3032,63.7173C1476.3032,63.7173,1477.6968,62.2827,1477.6968,62.2827C1477.6968,62.2827,1477.6968,62.2827,1477.6968,62.2827ZM1443,29C1443,29,1443,0,1443,0C1443,0,1441,0,1441,0C1441,0,1441,29,1441,29C1441,29,1443,29,1443,29C1443,29,1443,29,1443,29Z" fill="url(#master_svg2__4)" fill-opacity="1"/></g></g></g><g style="mix-blend-mode:passthrough" transform="matrix(-1,0,0,1,4696,0)"><g><g style="mix-blend-mode:passthrough"><path d="M2350,0.5C2350,0.5,2436.5,0.5,2436.5,0.5C2436.5,0.5,2468,63,2468,63C2468,63,2384.7059,63,2384.7059,63C2384.7059,63,2350,29,2350,29C2350,29,2350,0.5,2350,0.5C2350,0.5,2350,0.5,2350,0.5Z" fill="url(#master_svg3__5)" fill-opacity="1"/></g><g style="mix-blend-mode:passthrough"><path d="M2467.499976953125,62.49989C2467.499976953125,62.49989,2383.000016953125,61.99989,2383.000016953125,61.99989C2383.000016953125,61.99989,2376.036376953125,56,2376.036376953125,56C2376.036376953125,56,2464.536376953125,56.5,2464.536376953125,56.5C2464.536376953125,56.5,2467.499976953125,62.49989,2467.499976953125,62.49989C2467.499976953125,62.49989,2467.499976953125,62.49989,2467.499976953125,62.49989Z" fill-rule="evenodd" fill="url(#master_svg4__3)" fill-opacity="1"/></g><g style="mix-blend-mode:passthrough"><path d="M2384,63C2384,63,2383.3032,63.7173,2383.3032,63.7173C2383.3032,63.7173,2383.5942,64,2383.5942,64C2383.5942,64,2384,64,2384,64C2384,64,2384,63,2384,63C2384,63,2384,63,2384,63ZM2349,29C2349,29,2348,29,2348,29C2348,29,2348,29.4227,2348,29.4227C2348,29.4227,2348.303214,29.7173,2348.303214,29.7173C2348.303214,29.7173,2349,29,2349,29C2349,29,2349,29,2349,29ZM2468,62C2468,62,2384,62,2384,62C2384,62,2384,64,2384,64C2384,64,2468,64,2468,64C2468,64,2468,62,2468,62C2468,62,2468,62,2468,62ZM2384.6968,62.2827C2384.6968,62.2827,2349.69679,28.2827,2349.69679,28.2827C2349.69679,28.2827,2348.303214,29.7173,2348.303214,29.7173C2348.303214,29.7173,2383.3032,63.7173,2383.3032,63.7173C2383.3032,63.7173,2384.6968,62.2827,2384.6968,62.2827C2384.6968,62.2827,2384.6968,62.2827,2384.6968,62.2827ZM2350,29C2350,29,2350,0.5,2350,0.5C2350,0.5,2348,0.5,2348,0.5C2348,0.5,2348,29,2348,29C2348,29,2350,29,2350,29C2350,29,2350,29,2350,29Z" fill="url(#master_svg5__6)" fill-opacity="1"/></g></g></g><g style="mix-blend-mode:passthrough"><g><g style="mix-blend-mode:passthrough"><path d="M1528.5,0C1528.5,0,2261,0,2261,0C2261,0,2225,72,2225,72C2225,72,1939.5,72,1939.5,72C1939.5,72,1931,66,1931,66C1931,66,1894.5,66,1894.5,66C1894.5,66,1856.5,66,1856.5,66C1856.5,66,1847.5,72,1847.5,72C1847.5,72,1564,72,1564,72C1564,72,1528.5,0,1528.5,0C1528.5,0,1528.5,0,1528.5,0Z" fill="url(#master_svg6__7)" fill-opacity="1"/></g><g filter="url(#master_svg7_0_6659)" style="mix-blend-mode:passthrough" transform="matrix(-1,0,0,-1,3872,150)"><path d="M1936,75C1936,75,2020,75,2020,75C2020,75,2014,80,2014,80C2014,80,1942,80,1942,80C1942,80,1936,75,1936,75C1936,75,1936,75,1936,75Z" fill="#C2DEFF" fill-opacity="1"/></g><g style="mix-blend-mode:passthrough"><path d="M1546,35.5C1546,35.5,1553,35.5,1553,35.5C1553,35.5,1567.8542,65,1567.8542,65C1567.8542,65,1728.5,65,1728.5,65C1728.5,65,1728.5,72,1728.5,72C1728.5,72,1564.146,72,1564.146,72C1564.146,72,1546,35.5,1546,35.5C1546,35.5,1546,35.5,1546,35.5Z" fill-rule="evenodd" fill="url(#master_svg8__9)" fill-opacity="1"/></g><g style="mix-blend-mode:passthrough" transform="matrix(-1,0,0,1,4487,0)"><path d="M2243.5,34C2243.5,34,2250.5,34,2250.5,34C2250.5,34,2265.3542,63.5,2265.3542,63.5C2265.3542,63.5,2426,63.5,2426,63.5C2426,63.5,2426,70.5,2426,70.5C2426,70.5,2261.646,70.5,2261.646,70.5C2261.646,70.5,2243.5,34,2243.5,34C2243.5,34,2243.5,34,2243.5,34Z" fill-rule="evenodd" fill="url(#master_svg9__9)" fill-opacity="1"/></g><g style="mix-blend-mode:passthrough"><path d="M1854.974,63.5C1854.974,63.5,1932.5,63.5,1932.5,63.5C1932.5,63.5,1940.5,69.5,1940.5,69.5C1940.5,69.5,2049.5,69.5,2049.5,69.5C2049.5,69.5,2052.5,72.5,2052.5,72.5C2052.5,72.5,1939.5,72.5,1939.5,72.5C1939.5,72.5,1931.5,66.5,1931.5,66.5C1931.5,66.5,1856.026,66.5,1856.026,66.5C1856.026,66.5,1848.526,72.5,1848.526,72.5C1848.526,72.5,1736,72.5,1736,72.5C1736,72.5,1739,69.5,1739,69.5C1739,69.5,1847.474,69.5,1847.474,69.5C1847.474,69.5,1854.974,63.5,1854.974,63.5C1854.974,63.5,1854.974,63.5,1854.974,63.5Z" fill-rule="evenodd" fill="url(#master_svga__00)" fill-opacity="1"/></g><g style="mix-blend-mode:passthrough"><path d="M2225.000323983192,71.99999399961233C2225.000323983192,71.99999399961233,2225.000323983192,72.99999399961233,2225.000323983192,72.99999399961233C2225.000323983192,72.99999399961233,2225.6203239831925,72.99999399961233,2225.6203239831925,72.99999399961233C2225.6203239831925,72.99999399961233,2225.8963239831924,72.44469399961233,2225.8963239831924,72.44469399961233C2225.8963239831924,72.44469399961233,2225.000323983192,71.99999399961233,2225.000323983192,71.99999399961233C2225.000323983192,71.99999399961233,2225.000323983192,71.99999399961233,2225.000323983192,71.99999399961233ZM1564.0000239831925,71.99999399961233C1564.0000239831925,71.99999399961233,1563.1043239831924,72.44469399961233,1563.1043239831924,72.44469399961233C1563.1043239831924,72.44469399961233,1563.3800239831924,72.99999399961233,1563.3800239831924,72.99999399961233C1563.3800239831924,72.99999399961233,1564.0000239831925,72.99999399961233,1564.0000239831925,72.99999399961233C1564.0000239831925,72.99999399961233,1564.0000239831925,71.99999399961233,1564.0000239831925,71.99999399961233C1564.0000239831925,71.99999399961233,1564.0000239831925,71.99999399961233,1564.0000239831925,71.99999399961233ZM1848.0003239831924,71.99999399961233C1848.0003239831924,71.99999399961233,1848.0003239831924,72.99999399961233,1848.0003239831924,72.99999399961233C1848.0003239831924,72.99999399961233,1848.3513239831925,72.99999399961233,1848.3513239831925,72.99999399961233C1848.3513239831925,72.99999399961233,1848.6253239831924,72.78089399961233,1848.6253239831924,72.78089399961233C1848.6253239831924,72.78089399961233,1848.0003239831924,71.99999399961233,1848.0003239831924,71.99999399961233C1848.0003239831924,71.99999399961233,1848.0003239831924,71.99999399961233,1848.0003239831924,71.99999399961233ZM1855.5003239831924,65.99999399961233C1855.5003239831924,65.99999399961233,1855.5003239831924,64.99999399961233,1855.5003239831924,64.99999399961233C1855.5003239831924,64.99999399961233,1855.1493239831925,64.99999399961233,1855.1493239831925,64.99999399961233C1855.1493239831925,64.99999399961233,1854.8753239831924,65.21909399961233,1854.8753239831924,65.21909399961233C1854.8753239831924,65.21909399961233,1855.5003239831924,65.99999399961233,1855.5003239831924,65.99999399961233C1855.5003239831924,65.99999399961233,1855.5003239831924,65.99999399961233,1855.5003239831924,65.99999399961233ZM1932.0003239831924,65.99999399961233C1932.0003239831924,65.99999399961233,1932.6003239831925,65.19999399961233,1932.6003239831925,65.19999399961233C1932.6003239831925,65.19999399961233,1932.3333239831925,64.99999399961233,1932.3333239831925,64.99999399961233C1932.3333239831925,64.99999399961233,1932.0003239831924,64.99999399961233,1932.0003239831924,64.99999399961233C1932.0003239831924,64.99999399961233,1932.0003239831924,65.99999399961233,1932.0003239831924,65.99999399961233C1932.0003239831924,65.99999399961233,1932.0003239831924,65.99999399961233,1932.0003239831924,65.99999399961233ZM1940.0003239831924,71.99999399961233C1940.0003239831924,71.99999399961233,1939.4003239831925,72.79999399961233,1939.4003239831925,72.79999399961233C1939.4003239831925,72.79999399961233,1939.6673239831925,72.99999399961233,1939.6673239831925,72.99999399961233C1939.6673239831925,72.99999399961233,1940.0003239831924,72.99999399961233,1940.0003239831924,72.99999399961233C1940.0003239831924,72.99999399961233,1940.0003239831924,71.99999399961233,1940.0003239831924,71.99999399961233C1940.0003239831924,71.99999399961233,1940.0003239831924,71.99999399961233,1940.0003239831924,71.99999399961233ZM2259.6043239831924,0.05529399961233139C2259.6043239831924,0.05529399961233139,2224.1043239831924,71.55529399961233,2224.1043239831924,71.55529399961233C2224.1043239831924,71.55529399961233,2225.8963239831924,72.44469399961233,2225.8963239831924,72.44469399961233C2225.8963239831924,72.44469399961233,2261.3963239831924,0.9447059996123314,2261.3963239831924,0.9447059996123314C2261.3963239831924,0.9447059996123314,2259.6043239831924,0.05529399961233139,2259.6043239831924,0.05529399961233139C2259.6043239831924,0.05529399961233139,2259.6043239831924,0.05529399961233139,2259.6043239831924,0.05529399961233139ZM1564.8957239831925,71.55529399961233C1564.8957239831925,71.55529399961233,1529.3956739831924,0.05529399961233139,1529.3956739831924,0.05529399961233139C1529.3956739831924,0.05529399961233139,1527.6043239831924,0.9447059996123314,1527.6043239831924,0.9447059996123314C1527.6043239831924,0.9447059996123314,1563.1043239831924,72.44469399961233,1563.1043239831924,72.44469399961233C1563.1043239831924,72.44469399961233,1564.8957239831925,71.55529399961233,1564.8957239831925,71.55529399961233C1564.8957239831925,71.55529399961233,1564.8957239831925,71.55529399961233,1564.8957239831925,71.55529399961233ZM1848.0003239831924,70.99999399961233C1848.0003239831924,70.99999399961233,1564.0000239831925,70.99999399961233,1564.0000239831925,70.99999399961233C1564.0000239831925,70.99999399961233,1564.0000239831925,72.99999399961233,1564.0000239831925,72.99999399961233C1564.0000239831925,72.99999399961233,1848.0003239831924,72.99999399961233,1848.0003239831924,72.99999399961233C1848.0003239831924,72.99999399961233,1848.0003239831924,70.99999399961233,1848.0003239831924,70.99999399961233C1848.0003239831924,70.99999399961233,1848.0003239831924,70.99999399961233,1848.0003239831924,70.99999399961233ZM1854.8753239831924,65.21909399961233C1854.8753239831924,65.21909399961233,1847.3753239831924,71.21909399961233,1847.3753239831924,71.21909399961233C1847.3753239831924,71.21909399961233,1848.6253239831924,72.78089399961233,1848.6253239831924,72.78089399961233C1848.6253239831924,72.78089399961233,1856.1253239831924,66.78089399961233,1856.1253239831924,66.78089399961233C1856.1253239831924,66.78089399961233,1854.8753239831924,65.21909399961233,1854.8753239831924,65.21909399961233C1854.8753239831924,65.21909399961233,1854.8753239831924,65.21909399961233,1854.8753239831924,65.21909399961233ZM1932.0003239831924,64.99999399961233C1932.0003239831924,64.99999399961233,1855.5003239831924,64.99999399961233,1855.5003239831924,64.99999399961233C1855.5003239831924,64.99999399961233,1855.5003239831924,66.99999399961233,1855.5003239831924,66.99999399961233C1855.5003239831924,66.99999399961233,1932.0003239831924,66.99999399961233,1932.0003239831924,66.99999399961233C1932.0003239831924,66.99999399961233,1932.0003239831924,64.99999399961233,1932.0003239831924,64.99999399961233C1932.0003239831924,64.99999399961233,1932.0003239831924,64.99999399961233,1932.0003239831924,64.99999399961233ZM2225.000323983192,70.99999399961233C2225.000323983192,70.99999399961233,1940.0003239831924,70.99999399961233,1940.0003239831924,70.99999399961233C1940.0003239831924,70.99999399961233,1940.0003239831924,72.99999399961233,1940.0003239831924,72.99999399961233C1940.0003239831924,72.99999399961233,2225.000323983192,72.99999399961233,2225.000323983192,72.99999399961233C2225.000323983192,72.99999399961233,2225.000323983192,70.99999399961233,2225.000323983192,70.99999399961233C2225.000323983192,70.99999399961233,2225.000323983192,70.99999399961233,2225.000323983192,70.99999399961233ZM1940.6003239831925,71.19999399961233C1940.6003239831925,71.19999399961233,1932.6003239831925,65.19999399961233,1932.6003239831925,65.19999399961233C1932.6003239831925,65.19999399961233,1931.4003239831925,66.79999399961233,1931.4003239831925,66.79999399961233C1931.4003239831925,66.79999399961233,1939.4003239831925,72.79999399961233,1939.4003239831925,72.79999399961233C1939.4003239831925,72.79999399961233,1940.6003239831925,71.19999399961233,1940.6003239831925,71.19999399961233C1940.6003239831925,71.19999399961233,1940.6003239831925,71.19999399961233,1940.6003239831925,71.19999399961233Z" fill="url(#master_svgb__01)" fill-opacity="1"/></g><g style="opacity:0.8100000023841858;mix-blend-mode:passthrough"><path d="M1739,43C1739,43,1699.7357,43,1699.7357,43C1699.7357,43,1679,53,1679,53C1679,53,1719.921,53,1719.921,53C1719.921,53,1739,43,1739,43C1739,43,1739,43,1739,43Z" fill="url(#master_svgc__02)" fill-opacity="1"/><path d="M1739,43L1699.7357,43L1679,53L1719.921,53L1737.0921,44L1739,43ZM1734.938,44L1699.9642,44L1683.37568,52L1719.6748,52L1734.938,44Z" fill-rule="evenodd" fill="url(#master_svgd__03)" fill-opacity="1"/></g><g style="opacity:0.8100000023841858;mix-blend-mode:passthrough"><path d="M1881.7755,53C1881.7755,53,1852.94568,53,1852.94568,53C1852.94568,53,1848,64,1848,64C1848,64,1885,64,1885,64C1885,64,1881.7755,53,1881.7755,53C1881.7755,53,1881.7755,53,1881.7755,53Z" fill="url(#master_svge__04)" fill-opacity="1"/><path d="M1881.7755,53L1852.94568,53L1848,64L1885,64L1884.7069,63L1881.7755,53ZM1883.6648,63L1881.0266,54L1853.5925,54L1849.54603,63L1883.6648,63Z" fill-rule="evenodd" fill="url(#master_svgf__05)" fill-opacity="1"/></g><g style="mix-blend-mode:passthrough"><path d="M1725,46C1725,46,1635.7357,46,1635.7357,46C1635.7357,46,1569,63,1569,63C1569,63,1699.921,63,1699.921,63C1699.921,63,1725,46,1725,46C1725,46,1725,46,1725,46Z" fill="url(#master_svgg__06)" fill-opacity="1"/><path d="M1725,46L1635.7357,46L1569,63L1699.921,63L1725,46ZM1721.743,47L1635.8611,47L1576.9766300000001,62L1699.614,62L1721.743,47Z" fill-rule="evenodd" fill="url(#master_svgh__07)" fill-opacity="1"/></g><g style="opacity:0.18000000715255737;mix-blend-mode:passthrough" transform="matrix(-1,0,0,1,4074,0)"><path d="M2159,8C2159,8,2069.7357,8,2069.7357,8C2069.7357,8,2037,25,2037,25C2037,25,2133.921,25,2133.921,25C2133.921,25,2159,8,2159,8C2159,8,2159,8,2159,8Z" fill="url(#master_svgi__08)" fill-opacity="1"/><path d="M2159,8L2069.7357,8L2037,25L2133.921,25L2157.525,9L2159,8ZM2155.743,9L2069.9799,9L2041.09543,24L2133.614,24L2155.743,9Z" fill-rule="evenodd" fill="url(#master_svgj__09)" fill-opacity="1"/></g><g style="mix-blend-mode:passthrough" transform="matrix(-1,0,0,1,4060,0)"><path d="M2152,14C2152,14,2062.7357,14,2062.7357,14C2062.7357,14,2030,31,2030,31C2030,31,2126.921,31,2126.921,31C2126.921,31,2152,14,2152,14C2152,14,2152,14,2152,14Z" fill="url(#master_svgk__108)" fill-opacity="1"/><path d="M2152,14L2062.7357,14L2030,31L2126.921,31L2150.525,15L2152,14ZM2148.743,15L2062.9799,15L2034.09543,30L2126.614,30L2148.743,15Z" fill-rule="evenodd" fill="url(#master_svgl__09)" fill-opacity="1"/></g><g filter="url(#master_svgm_0_6670)" style="mix-blend-mode:passthrough"><path d="M1609,71C1609,71,1685,71,1685,71C1685,71,1679,76,1679,76C1679,76,1615,76,1615,76C1615,76,1609,71,1609,71C1609,71,1609,71,1609,71Z" fill="#C2DEFF" fill-opacity="1"/></g><g filter="url(#master_svgn_0_6671)" style="mix-blend-mode:passthrough"><path d="M2104,71C2104,71,2180,71,2180,71C2180,71,2174,76,2174,76C2174,76,2110,76,2110,76C2110,76,2104,71,2104,71C2104,71,2104,71,2104,71Z" fill="#C2DEFF" fill-opacity="1"/></g></g></g><g style="mix-blend-mode:passthrough"><g><g style="opacity:0.6000000238418579;mix-blend-mode:passthrough"><path d="M2236,68C2236,68,2254,68,2254,68C2254,68,2252,70,2252,70C2252,70,2234,70,2234,70C2234,70,2236,68,2236,68C2236,68,2236,68,2236,68Z" fill="#F2994A" fill-opacity="1"/></g><g style="mix-blend-mode:passthrough"><path d="M2260,68C2260,68,2278,68,2278,68C2278,68,2276,70,2276,70C2276,70,2258,70,2258,70C2258,70,2260,68,2260,68C2260,68,2260,68,2260,68Z" fill="#F2994A" fill-opacity="1"/></g><g style="opacity:0.30000001192092896;mix-blend-mode:passthrough"><path d="M2284,68C2284,68,2302,68,2302,68C2302,68,2300,70,2300,70C2300,70,2282,70,2282,70C2282,70,2284,68,2284,68C2284,68,2284,68,2284,68Z" fill="#F2994A" fill-opacity="1"/></g></g></g><g style="mix-blend-mode:passthrough" transform="matrix(-1,0,0,1,3112,0)"><g><g style="opacity:0.6000000238418579;mix-blend-mode:passthrough"><path d="M1558,68C1558,68,1576,68,1576,68C1576,68,1574,70,1574,70C1574,70,1556,70,1556,70C1556,70,1558,68,1558,68C1558,68,1558,68,1558,68Z" fill="#F2994A" fill-opacity="1"/></g><g style="mix-blend-mode:passthrough"><path d="M1582,68C1582,68,1600,68,1600,68C1600,68,1598,70,1598,70C1598,70,1580,70,1580,70C1580,70,1582,68,1582,68C1582,68,1582,68,1582,68Z" fill="#F2994A" fill-opacity="1"/></g><g style="opacity:0.30000001192092896;mix-blend-mode:passthrough"><path d="M1606,68C1606,68,1624,68,1624,68C1624,68,1622,70,1622,70C1622,70,1604,70,1604,70C1604,70,1606,68,1606,68C1606,68,1606,68,1606,68Z" fill="#F2994A" fill-opacity="1"/></g></g></g></g></g><g style="mix-blend-mode:passthrough"><g><g style="mix-blend-mode:passthrough"><path d="M2347,59C2347,59,2364,59,2364,59C2364,59,2367,61,2367,61C2367,61,2344,61,2344,61C2344,61,2347,59,2347,59C2347,59,2347,59,2347,59Z" fill="#0E4688" fill-opacity="1"/></g><g style="mix-blend-mode:passthrough"><path d="M3759,60C3759,60,3774,60,3774,60C3774,60,3777,62,3777,62C3777,62,3762,62,3762,62C3762,62,3759,60,3759,60C3759,60,3759,60,3759,60Z" fill="#1B7EF2" fill-opacity="1"/></g><g style="opacity:0.699999988079071;mix-blend-mode:passthrough"><path d="M3782,60C3782,60,3797,60,3797,60C3797,60,3800,62,3800,62C3800,62,3785,62,3785,62C3785,62,3782,60,3782,60C3782,60,3782,60,3782,60Z" fill="#0D3565" fill-opacity="1"/></g><g style="mix-blend-mode:passthrough"><g><g style="opacity:0.20000000298023224;mix-blend-mode:passthrough"><path d="M2722,55C2722,55,2740,55,2740,55C2740,55,2738,57,2738,57C2738,57,2720,57,2720,57C2720,57,2722,55,2722,55C2722,55,2722,55,2722,55Z" fill="#F2994A" fill-opacity="1"/></g><g style="opacity:0.20000000298023224;mix-blend-mode:passthrough"><path d="M2746,55C2746,55,2764,55,2764,55C2764,55,2762,57,2762,57C2762,57,2744,57,2744,57C2744,57,2746,55,2746,55C2746,55,2746,55,2746,55Z" fill="#F2994A" fill-opacity="1"/></g><g style="opacity:0.20000000298023224;mix-blend-mode:passthrough"><path d="M2770,55C2770,55,2788,55,2788,55C2788,55,2786,57,2786,57C2786,57,2768,57,2768,57C2768,57,2770,55,2770,55C2770,55,2770,55,2770,55Z" fill="#F2994A" fill-opacity="1"/></g></g></g><g style="mix-blend-mode:passthrough"><path d="M2792.408,53C2792.408,53,2815,53,2815,53C2815,53,2820,57,2820,57C2820,57,2794.592,57,2794.592,57C2794.592,57,2790.092,63,2790.092,63C2790.092,63,2369,63,2369,63C2369,63,2373,59,2373,59C2373,59,2787.908,59,2787.908,59C2787.908,59,2792.408,53,2792.408,53C2792.408,53,2792.408,53,2792.408,53Z" fill-rule="evenodd" fill="#0E4688" fill-opacity="1"/></g><g style="mix-blend-mode:passthrough"><line x1="2798" y1="62.5" x2="3295" y2="63.5" fill-opacity="0" stroke-opacity="1" stroke="#0E488D" stroke-width="1" fill="none" stroke-dasharray=""/></g><g style="mix-blend-mode:passthrough" transform="matrix(1,-0.0023417130578309298,0.0023417130578309298,1,-0.14752792264334857,7.744045082246885)"><line x1="3307" y1="62.5" x2="3751.0011291503906" y2="63.5" fill-opacity="0" stroke-opacity="1" stroke="#0E488D" stroke-width="1" fill="none" stroke-dasharray=""/></g><g style="mix-blend-mode:passthrough"><path d="M2341,62C2341,62,2379,62,2379,62C2379,62,2379,63,2379,63C2379,63,2340,63,2340,63C2340,63,2341,62,2341,62C2341,62,2341,62,2341,62Z" fill="#0E488D" fill-opacity="1"/></g><g style="mix-blend-mode:passthrough" transform="matrix(-1,0,0,1,5706,0)"><path d="M2853,56C2853,56,2889,56,2889,56C2889,56,2889,57,2889,57C2889,57,2853,57,2853,57C2853,57,2853,56,2853,56C2853,56,2853,56,2853,56Z" fill="#0E488D" fill-opacity="1"/></g><g style="mix-blend-mode:passthrough" transform="matrix(-1,0,0,1,7600,0)"><path d="M3800.00349487,56C3800.00349487,56,4737,56,4737,56C4737,56,4737,57,4737,57C4737,57,3800,57,3800,57C3800,57,3800.00349487,56,3800.00349487,56C3800.00349487,56,3800.00349487,56,3800.00349487,56Z" fill="#0D3565" fill-opacity="1"/></g><g style="mix-blend-mode:passthrough"><path d="M3304,60C3304,60,3306,60,3306,60C3306,60,3308,63,3308,63C3308,63,3306,63,3306,63C3306,63,3304,60,3304,60C3304,60,3304,60,3304,60Z" fill="#1B7EF2" fill-opacity="1"/></g></g></g><g style="mix-blend-mode:passthrough" transform="matrix(-1,0,0,1,2920,0)"><g><g style="mix-blend-mode:passthrough"><path d="M1467,59C1467,59,1484,59,1484,59C1484,59,1487,61,1487,61C1487,61,1464,61,1464,61C1464,61,1467,59,1467,59C1467,59,1467,59,1467,59Z" fill="#0E4688" fill-opacity="1"/></g><g style="mix-blend-mode:passthrough"><path d="M2879,60C2879,60,2894,60,2894,60C2894,60,2897,62,2897,62C2897,62,2882,62,2882,62C2882,62,2879,60,2879,60C2879,60,2879,60,2879,60Z" fill="#1B7EF2" fill-opacity="1"/></g><g style="opacity:0.699999988079071;mix-blend-mode:passthrough"><path d="M2902,60C2902,60,2917,60,2917,60C2917,60,2920,62,2920,62C2920,62,2905,62,2905,62C2905,62,2902,60,2902,60C2902,60,2902,60,2902,60Z" fill="#0D3565" fill-opacity="1"/></g><g style="mix-blend-mode:passthrough"><g><g style="opacity:0.20000000298023224;mix-blend-mode:passthrough"><path d="M1842,55C1842,55,1860,55,1860,55C1860,55,1858,57,1858,57C1858,57,1840,57,1840,57C1840,57,1842,55,1842,55C1842,55,1842,55,1842,55Z" fill="#F2994A" fill-opacity="1"/></g><g style="opacity:0.20000000298023224;mix-blend-mode:passthrough"><path d="M1866,55C1866,55,1884,55,1884,55C1884,55,1882,57,1882,57C1882,57,1864,57,1864,57C1864,57,1866,55,1866,55C1866,55,1866,55,1866,55Z" fill="#F2994A" fill-opacity="1"/></g><g style="opacity:0.20000000298023224;mix-blend-mode:passthrough"><path d="M1890,55C1890,55,1908,55,1908,55C1908,55,1906,57,1906,57C1906,57,1888,57,1888,57C1888,57,1890,55,1890,55C1890,55,1890,55,1890,55Z" fill="#F2994A" fill-opacity="1"/></g></g></g><g style="mix-blend-mode:passthrough"><path d="M1912.408,53C1912.408,53,1935,53,1935,53C1935,53,1940,57,1940,57C1940,57,1914.592,57,1914.592,57C1914.592,57,1910.092,63,1910.092,63C1910.092,63,1489,63,1489,63C1489,63,1493,59,1493,59C1493,59,1907.908,59,1907.908,59C1907.908,59,1912.408,53,1912.408,53C1912.408,53,1912.408,53,1912.408,53Z" fill-rule="evenodd" fill="#0E4688" fill-opacity="1"/></g><g style="mix-blend-mode:passthrough"><line x1="1918" y1="62.5" x2="2415" y2="63.5" fill-opacity="0" stroke-opacity="1" stroke="#0E488D" stroke-width="1" fill="none" stroke-dasharray=""/></g><g style="mix-blend-mode:passthrough" transform="matrix(1,-0.0023417130578309298,0.0023417130578309298,1,-0.14752792264334857,5.6833375913556665)"><line x1="2427" y1="62.5" x2="2871.0011291503906" y2="63.5" fill-opacity="0" stroke-opacity="1" stroke="#0E488D" stroke-width="1" fill="none" stroke-dasharray=""/></g><g style="mix-blend-mode:passthrough"><path d="M1461,62C1461,62,1499,62,1499,62C1499,62,1499,63,1499,63C1499,63,1460,63,1460,63C1460,63,1461,62,1461,62C1461,62,1461,62,1461,62Z" fill="#0E488D" fill-opacity="1"/></g><g style="mix-blend-mode:passthrough" transform="matrix(-1,0,0,1,3946,0)"><path d="M1973,56C1973,56,2009,56,2009,56C2009,56,2009,57,2009,57C2009,57,1973,57,1973,57C1973,57,1973,56,1973,56C1973,56,1973,56,1973,56Z" fill="#0E488D" fill-opacity="1"/></g><g style="mix-blend-mode:passthrough" transform="matrix(-1,0,0,1,5840,0)"><path d="M2920.00349487,56C2920.00349487,56,3857,56,3857,56C3857,56,3857,57,3857,57C3857,57,2920,57,2920,57C2920,57,2920.00349487,56,2920.00349487,56C2920.00349487,56,2920.00349487,56,2920.00349487,56Z" fill="#0D3565" fill-opacity="1"/></g><g style="mix-blend-mode:passthrough"><path d="M2424,60C2424,60,2426,60,2426,60C2426,60,2428,63,2428,63C2428,63,2426,63,2426,63C2426,63,2424,60,2424,60C2424,60,2424,60,2424,60Z" fill="#1B7EF2" fill-opacity="1"/></g></g></g></g></g></svg>