<svg xmlns="http://www.w3.org/2000/svg" xmlns:xlink="http://www.w3.org/1999/xlink" fill="none" version="1.1" width="72" height="72" viewBox="0 0 72 72"><defs><filter id="master_svg1_0_8858" filterUnits="objectBoundingBox" color-interpolation-filters="sRGB" x="-30.000001907348633" y="-27.000001907348633" width="86.38710403442383" height="89.87100410461426"><feFlood flood-opacity="0" result="BackgroundImageFix"/><feColorMatrix in="SourceAlpha" type="matrix" values="0 0 0 0 0 0 0 0 0 0 0 0 0 0 0 0 0 0 127 0"/><feOffset dy="4" dx="1"/><feGaussianBlur stdDeviation="7.750000476837158"/><feColorMatrix type="matrix" values="0 0 0 0 0.3657986521720886 0 0 0 0 0.6732187271118164 0 0 0 0 0.8958333134651184 0 0 0 0.44999998807907104 0"/><feBlend mode="normal" in2="BackgroundImageFix" result="effect1_dropShadow"/><feBlend mode="normal" in="SourceGraphic" in2="effect1_dropShadow" result="shape"/></filter></defs><clipPath id="master_svg0_0_8857"><rect x="13" y="13" width="46.45161056518555" height="46.45161056518555" rx="0"/></clipPath><g style="mix-blend-mode:passthrough"><g><g style="mix-blend-mode:passthrough"><ellipse cx="36" cy="36" rx="35.65048545598984" ry="35.65048545598984" fill-opacity="0" stroke-opacity="1" stroke="#125DB5" stroke-width="0.6990290880203247" fill="none" stroke-dasharray=""/></g><g style="mix-blend-mode:passthrough"><path d="M61.9943848815918,47.6206955871582C61.7618848815918,48.121595587158204,61.979484881591794,48.716195587158204,62.480384881591796,48.9487955871582C62.981384881591794,49.1812955871582,63.57598488159179,48.963695587158206,63.808484881591795,48.462795587158205C63.808484881591795,48.462795587158205,61.9943848815918,47.6206955871582,61.9943848815918,47.6206955871582C61.9943848815918,47.6206955871582,61.9943848815918,47.6206955871582,61.9943848815918,47.6206955871582ZM50.177084881591796,62.672595587158206C50.667884881591796,62.4192955871582,50.8603848815918,61.8160955871582,50.607084881591796,61.3252955871582C50.353884881591796,60.8344955871582,49.750684881591795,60.641995587158206,49.259884881591795,60.8952955871582C49.259884881591795,60.8952955871582,50.177084881591796,62.672595587158206,50.177084881591796,62.672595587158206C50.177084881591796,62.672595587158206,50.177084881591796,62.672595587158206,50.177084881591796,62.672595587158206ZM36.2903848815918,64.0323955871582C20.6482848815918,64.0323955871582,7.967784881591797,51.351895587158204,7.967784881591797,35.709795587158204C7.967784881591797,35.709795587158204,5.967784881591797,35.709795587158204,5.967784881591797,35.709795587158204C5.967784881591797,52.4564955871582,19.543684881591798,66.0323955871582,36.2903848815918,66.0323955871582C36.2903848815918,66.0323955871582,36.2903848815918,64.0323955871582,36.2903848815918,64.0323955871582C36.2903848815918,64.0323955871582,36.2903848815918,64.0323955871582,36.2903848815918,64.0323955871582ZM7.967784881591797,35.709795587158204C7.967784881591797,20.067695587158205,20.6482848815918,7.387195587158203,36.2903848815918,7.387195587158203C36.2903848815918,7.387195587158203,36.2903848815918,5.387195587158203,36.2903848815918,5.387195587158203C19.543684881591798,5.387195587158203,5.967784881591797,18.963095587158204,5.967784881591797,35.709795587158204C5.967784881591797,35.709795587158204,7.967784881591797,35.709795587158204,7.967784881591797,35.709795587158204C7.967784881591797,35.709795587158204,7.967784881591797,35.709795587158204,7.967784881591797,35.709795587158204ZM36.2903848815918,7.387195587158203C51.9324848815918,7.387195587158203,64.6129848815918,20.067695587158205,64.6129848815918,35.709795587158204C64.6129848815918,35.709795587158204,66.6129848815918,35.709795587158204,66.6129848815918,35.709795587158204C66.6129848815918,18.963095587158204,53.037084881591795,5.387195587158203,36.2903848815918,5.387195587158203C36.2903848815918,5.387195587158203,36.2903848815918,7.387195587158203,36.2903848815918,7.387195587158203C36.2903848815918,7.387195587158203,36.2903848815918,7.387195587158203,36.2903848815918,7.387195587158203ZM64.6129848815918,35.709795587158204C64.6129848815918,39.9663955871582,63.6745848815918,44.001095587158204,61.9943848815918,47.6206955871582C61.9943848815918,47.6206955871582,63.808484881591795,48.462795587158205,63.808484881591795,48.462795587158205C65.6086848815918,44.584795587158204,66.6129848815918,40.2631955871582,66.6129848815918,35.709795587158204C66.6129848815918,35.709795587158204,64.6129848815918,35.709795587158204,64.6129848815918,35.709795587158204C64.6129848815918,35.709795587158204,64.6129848815918,35.709795587158204,64.6129848815918,35.709795587158204ZM49.259884881591795,60.8952955871582C45.375084881591796,62.899895587158206,40.966484881591796,64.0323955871582,36.2903848815918,64.0323955871582C36.2903848815918,64.0323955871582,36.2903848815918,66.0323955871582,36.2903848815918,66.0323955871582C41.2929848815918,66.0323955871582,46.0153848815918,64.82009558715819,50.177084881591796,62.672595587158206C50.177084881591796,62.672595587158206,49.259884881591795,60.8952955871582,49.259884881591795,60.8952955871582C49.259884881591795,60.8952955871582,49.259884881591795,60.8952955871582,49.259884881591795,60.8952955871582Z" fill="#0AA7FF" fill-opacity="1"/></g><g clip-path="url(#master_svg0_0_8857)" style="mix-blend-mode:passthrough"><g><g filter="url(#master_svg1_0_8858)" style="mix-blend-mode:passthrough"><path d="M46.902757080078125,41.47952230377197C46.37465708007812,41.75822230377197,45.724657080078124,42.03692230377197,44.87165708007812,42.32962230377197C42.44785708007812,43.151722303771976,39.374057080078124,43.597722303771974,36.21905708007812,43.597722303771974C33.06401708007812,43.597722303771974,29.990257080078123,43.151722303771976,27.566427080078125,42.32962230377197C26.713347080078126,42.03692230377197,26.049847080078123,41.77212230377197,25.508207080078126,41.46552230377198C24.939498080078124,41.186822303771976,24.438483080078125,40.86632230377197,24.032257080078125,40.53192230377197C24.032257080078125,40.53192230377197,24.032257080078125,45.28392230377197,24.032257080078125,45.28392230377197C24.032257080078125,46.07822230377197,24.519728080078124,46.844722303771974,25.386347080078124,47.49962230377197C25.982137080078125,47.98742230377197,26.767517080078125,48.40542230377197,27.715367080078124,48.767722303771976C29.895437080078125,49.63182230377197,32.91508708007812,50.16132230377197,36.21905708007812,50.16132230377197C39.52295708007813,50.16132230377197,42.54265708007813,49.63182230377197,44.72265708007812,48.767722303771976C45.670557080078126,48.40542230377197,46.455857080078125,47.98742230377197,47.05165708007813,47.49962230377197C47.918357080078124,46.844722303771974,48.40585708007812,46.07822230377197,48.40585708007812,45.28392230377197C48.40585708007812,45.28392230377197,48.40585708007812,40.53192230377197,48.40585708007812,40.53192230377197C48.01315708007812,40.852422303771974,47.51205708007812,41.186822303771976,46.902757080078125,41.47952230377197C46.902757080078125,41.47952230377197,46.902757080078125,41.47952230377197,46.902757080078125,41.47952230377197ZM47.05165708007813,24.952002303771973C46.455857080078125,24.464262303771974,45.670557080078126,24.046192303771974,44.72265708007812,23.683872303771974C42.54265708007813,22.819871303771972,39.52295708007813,22.290322273832473,36.21905708007812,22.290322303771973C32.91508708007812,22.290322333711472,29.895437080078125,22.819871303771972,27.715367080078124,23.683872303771974C26.767517080078125,24.046192303771974,25.982137080078125,24.464262303771974,25.386347080078124,24.952002303771973C24.519728080078124,25.606972303771972,24.032257080078125,26.373422303771974,24.032257080078125,27.167752303771973C24.032257080078125,27.167752303771973,24.032257080078125,30.623752303771973,24.032257080078125,30.623752303771973C24.262451080078126,30.944272303771974,24.560351080078124,31.22298230377197,24.844707080078123,31.432012303771973C25.196767080078125,31.724652303771972,25.616537080078125,31.98943230377197,26.117547080078126,32.240272303771974C26.618557080078126,32.50502230377197,27.214357080078123,32.755922303771975,27.999727080078124,33.02062230377197C32.57656708007812,34.55352230377197,39.87505708007812,34.55352230377197,44.45185708007813,33.02062230377197C45.23725708007812,32.755922303771975,45.81955708007813,32.50502230377197,46.30695708007812,32.254202303771976C46.83505708007813,31.98943230377197,47.254857080078125,31.724652303771972,47.579757080078124,31.459882303771973C47.86415708007813,31.236912303771973,48.17555708007812,30.958202303771973,48.41935708007813,30.623752303771973C48.41935708007813,30.623752303771973,48.41935708007813,27.167752303771973,48.41935708007813,27.167752303771973C48.40585708007812,26.373422303771974,47.918357080078124,25.606972303771972,47.05165708007813,24.952002303771973C47.05165708007813,24.952002303771973,47.05165708007813,24.952002303771973,47.05165708007813,24.952002303771973ZM46.902757080078125,33.50842230377197C46.37465708007812,33.78712230377197,45.724657080078124,34.065822303771974,44.87165708007812,34.358422303771974C42.44785708007812,35.18062230377197,39.374057080078124,35.626622303771974,36.21905708007812,35.626622303771974C33.06401708007812,35.626622303771974,29.990257080078123,35.18062230377197,27.566427080078125,34.358422303771974C26.713347080078126,34.065822303771974,26.063387080078126,33.78712230377197,25.508207080078126,33.49442230377197C24.939498080078124,33.21572230377197,24.438483080078125,32.89522230377197,24.032257080078125,32.56082230377197C24.032257080078125,32.56082230377197,24.032257080078125,38.60882230377197,24.032257080078125,38.60882230377197C24.262451080078126,38.92932230377197,24.560351080078124,39.20802230377197,24.844707080078123,39.41702230377197C25.196767080078125,39.70972230377197,25.616537080078125,39.97452230377198,26.117547080078126,40.225322303771975C26.618557080078126,40.49012230377197,27.214357080078123,40.740922303771974,27.999727080078124,41.005722303771975C32.57656708007812,42.53862230377197,39.87505708007812,42.53862230377197,44.45185708007813,41.005722303771975C45.23725708007812,40.740922303771974,45.81955708007813,40.49012230377197,46.30695708007812,40.23922230377197C46.83505708007813,39.97452230377198,47.254857080078125,39.70972230377197,47.579757080078124,39.444922303771975C47.86415708007813,39.221922303771976,48.17555708007812,38.943222303771975,48.41935708007813,38.60882230377197C48.41935708007813,38.60882230377197,48.41935708007813,32.56082230377197,48.41935708007813,32.56082230377197C48.01315708007812,32.881322303771974,47.51205708007812,33.201822303771976,46.902757080078125,33.50842230377197C46.902757080078125,33.50842230377197,46.902757080078125,33.50842230377197,46.902757080078125,33.50842230377197Z" fill="#0AA7FF" fill-opacity="1"/></g></g></g><g style="mix-blend-mode:passthrough"><ellipse cx="57.774184703826904" cy="56.03241682052612" rx="2.612903118133545" ry="2.612903118133545" fill="#F2994A" fill-opacity="1"/></g></g></g></svg>